<svg width="121" height="126" viewBox="0 0 121 126" fill="none" xmlns="http://www.w3.org/2000/svg">
<path d="M59.9752 48V30H41.9827V18H59.9752V0H71.9703V18H89.9628V30H71.9703V48H59.9752ZM35.9851 126C32.6865 126 29.8637 124.826 27.5166 122.478C25.1656 120.126 23.9901 117.3 23.9901 114C23.9901 110.7 25.1656 107.874 27.5166 105.522C29.8637 103.174 32.6865 102 35.9851 102C39.2838 102 42.1066 103.174 44.4536 105.522C46.8047 107.874 47.9802 110.7 47.9802 114C47.9802 117.3 46.8047 120.126 44.4536 122.478C42.1066 124.826 39.2838 126 35.9851 126ZM95.9604 126C92.6617 126 89.8389 124.826 87.4919 122.478C85.1408 120.126 83.9653 117.3 83.9653 114C83.9653 110.7 85.1408 107.874 87.4919 105.522C89.8389 103.174 92.6617 102 95.9604 102C99.259 102 102.084 103.174 104.435 105.522C106.782 107.874 107.955 110.7 107.955 114C107.955 117.3 106.782 120.126 104.435 122.478C102.084 124.826 99.259 126 95.9604 126ZM35.9851 96C31.487 96 28.0384 94.024 25.6394 90.072C23.2404 86.124 23.1904 82.2 25.4895 78.3L33.5861 63.6L11.995 18H0V6H19.6419L45.1314 60H87.2639L110.504 18L121 23.7L97.7596 65.7C96.6601 67.7 95.2107 69.25 93.4114 70.35C91.6122 71.45 89.563 72 87.2639 72H42.5824L35.9851 84H107.955V96H35.9851Z" fill="#304763"/>
</svg>
