<svg width="101" height="138" viewBox="0 0 101 138" fill="none" xmlns="http://www.w3.org/2000/svg">
<path d="M98.2825 55.5987C96.4708 57.3708 94.2817 58.2214 91.7152 58.1505C89.1487 58.0737 86.9596 57.1493 85.148 55.3772L59.5583 30.3467L59.5583 129.14C59.5583 131.65 58.6887 133.756 56.9495 135.457C55.2163 137.152 53.0665 138 50.5 138C47.9335 138 45.7806 137.152 44.0414 135.457C42.3083 133.756 41.4417 131.65 41.4417 129.14L41.4417 30.3467L15.6256 55.5987C13.8139 57.3708 11.661 58.2568 9.16699 58.2568C6.67898 58.2568 4.52915 57.3708 2.71749 55.5987C0.905828 53.8266 1.02887e-06 51.7208 1.05796e-06 49.2813C1.08698e-06 46.8477 0.905828 44.7448 2.71749 42.9727L44.1592 2.43661C45.065 1.55058 46.0463 0.921482 47.1031 0.549348C48.1599 0.18312 49.2922 3.38848e-06 50.5 3.40288e-06C51.7078 3.41728e-06 52.8401 0.18312 53.8969 0.549348C54.9537 0.921483 55.935 1.55058 56.8408 2.43661L98.509 43.1942C100.17 44.8186 101 46.8477 101 49.2813C101 51.7208 100.094 53.8267 98.2825 55.5987V55.5987Z" fill="white"/>
</svg>
