<svg width="390" height="1140" viewBox="0 0 390 1140" fill="none" xmlns="http://www.w3.org/2000/svg">
<path d="M352.905 773.13L352.905 827.905C352.905 829.115 352.407 830.276 351.522 831.132C350.637 831.988 349.436 832.469 348.184 832.469C346.931 832.469 345.731 831.988 344.845 831.132C343.96 830.276 343.462 829.115 343.462 827.905L343.462 773.13C343.462 771.92 343.96 770.759 344.845 769.903C345.731 769.047 346.931 768.566 348.184 768.566C349.436 768.566 350.637 769.047 351.522 769.903C352.407 770.759 352.905 771.92 352.905 773.13ZM367.068 841.598L357.626 841.598L357.626 759.437L367.068 759.437L367.068 841.598ZM338.741 814.211L338.741 823.34L272.645 823.34L272.645 814.211L338.741 814.211ZM338.741 777.695L338.741 786.824L272.645 786.824L272.645 777.695L338.741 777.695ZM338.741 795.953L338.741 805.082L272.645 805.082L272.645 795.953L338.741 795.953Z" fill="#496483" fill-opacity="0.17"/>
<path d="M76.5892 1041.91L104.916 1089.34C105.542 1090.39 105.712 1091.64 105.388 1092.81C105.064 1093.98 104.273 1094.97 103.188 1095.58C102.104 1096.18 100.815 1096.35 99.6057 1096.03C98.3963 1095.72 97.3651 1094.96 96.739 1093.91L68.4119 1046.47C67.7858 1045.42 67.6161 1044.18 67.9402 1043.01C68.2643 1041.84 69.0556 1040.84 70.1399 1040.24C71.2243 1039.63 72.513 1039.47 73.7225 1039.78C74.9319 1040.09 75.9631 1040.86 76.5892 1041.91ZM124.264 1094.35L116.087 1098.92L73.5961 1027.77L81.7734 1023.2L124.264 1094.35ZM85.5686 1084.33L90.2897 1092.24L33.0483 1124.19L28.3271 1116.28L85.5686 1084.33ZM66.6838 1052.71L71.405 1060.61L14.1636 1092.56L9.44238 1084.66L66.6838 1052.71ZM76.1262 1068.52L80.8474 1076.42L23.606 1108.38L18.8848 1100.47L76.1262 1068.52Z" fill="#496483" fill-opacity="0.17"/>
<path d="M74.8101 856.265C98.2481 856.187 118.115 836.938 118.189 814.231L118.194 812.831L116.788 812.494L61.4755 799.271L58.505 798.561L59.2451 801.432L73.0145 854.914L73.3646 856.27L74.8101 856.265ZM68.3816 829.542C70.6408 828.727 72.5419 826.889 71.8177 824.128C71.2208 821.848 68.4741 820.311 66.1631 820.923L61.0338 801.002L109.663 812.627C106.824 830.718 91.7838 845.263 73.1378 848.014L68.3816 829.542" fill="#496483" fill-opacity="0.17"/>
<path d="M79.7922 810.992C79.7895 811.719 79.9358 812.439 80.2226 813.111C80.5095 813.783 80.9312 814.394 81.4635 814.907C81.9934 815.422 82.6234 815.829 83.3171 816.107C84.0108 816.385 84.7545 816.527 85.5054 816.526C86.2558 816.527 86.9991 816.385 87.6923 816.107C88.3855 815.829 89.015 815.421 89.5444 814.907C89.9712 814.493 89.9732 813.765 89.5444 813.352C89.3313 813.147 89.0427 813.032 88.7419 813.032C88.4411 813.032 88.1526 813.147 87.9398 813.353C87.2921 813.981 86.4246 814.328 85.5044 814.328C84.5842 814.328 83.7177 813.984 83.0701 813.355C81.7709 812.093 81.7709 809.89 83.0681 808.633C83.2762 808.425 83.3925 808.146 83.3925 807.856C83.3925 807.566 83.2762 807.288 83.0681 807.079C82.9629 806.977 82.8379 806.897 82.7004 806.841C82.5629 806.786 82.4154 806.758 82.2666 806.758C82.1177 806.758 81.9703 806.787 81.8329 806.842C81.6954 806.897 81.5705 806.978 81.4655 807.08C80.9329 807.593 80.5109 808.202 80.2236 808.874C79.9364 809.545 79.7898 810.265 79.7922 810.992M95.1323 826.955C94.426 826.793 93.6908 826.789 92.9825 826.942C92.0835 827.139 91.2596 827.575 90.6049 828.202C89.9502 828.83 89.491 829.622 89.2798 830.49C89.2189 830.747 89.2657 831.017 89.41 831.24C89.5543 831.464 89.7843 831.624 90.0498 831.684C90.3147 831.735 90.5898 831.687 90.8188 831.548C91.0477 831.409 91.2132 831.191 91.2814 830.939C91.6206 829.524 93.1924 828.558 94.6687 828.893C95.3985 829.058 96.0307 829.496 96.4263 830.112C96.822 830.727 96.9487 831.469 96.7788 832.175C96.7171 832.433 96.7618 832.702 96.9081 832.926C97.0533 833.151 97.2811 833.31 97.5497 833.367C97.699 833.401 97.8532 833.403 98.0034 833.371C98.1921 833.33 98.365 833.238 98.5025 833.106C98.64 832.974 98.7366 832.808 98.7813 832.626C98.9284 832.021 98.9497 831.395 98.844 830.782C98.7383 830.17 98.5077 829.584 98.1655 829.058C97.8297 828.531 97.3885 828.073 96.8678 827.712C96.347 827.351 95.757 827.093 95.1323 826.955M77.6463 835.729C77.8267 835.086 77.8549 834.412 77.7289 833.758C77.5694 832.929 77.1719 832.16 76.5819 831.539C75.9919 830.917 75.2332 830.469 74.3923 830.245C74.2689 830.213 74.1403 830.205 74.0138 830.222C73.8873 830.238 73.7653 830.278 73.6548 830.34C73.5443 830.402 73.4475 830.484 73.3699 830.582C73.2923 830.68 73.2354 830.792 73.2025 830.911C73.142 831.151 73.1795 831.405 73.307 831.62C73.4345 831.835 73.6425 831.994 73.8879 832.065C75.2568 832.424 76.1441 833.896 75.7681 835.235C75.6778 835.564 75.5209 835.872 75.3066 836.141C75.0923 836.41 74.8248 836.636 74.5196 836.805C73.9008 837.148 73.1816 837.24 72.4941 837.061C72.3353 837.019 72.168 837.017 72.0081 837.055C71.8482 837.093 71.7009 837.169 71.5801 837.277C71.4593 837.385 71.3689 837.522 71.3176 837.673C71.2662 837.824 71.2555 837.985 71.2864 838.142C71.32 838.316 71.4036 838.478 71.5278 838.609C71.652 838.74 71.8117 838.835 71.9888 838.882C72.5738 839.036 73.1846 839.076 73.7859 839.001C74.3871 838.925 74.9668 838.735 75.4915 838.441C76.0179 838.148 76.4792 837.758 76.849 837.293C77.2188 836.827 77.4898 836.296 77.6463 835.729M84.82 832.08C88.5963 830.833 90.6308 826.828 89.3643 823.124C88.0959 819.422 84.0042 817.427 80.2319 818.671C76.4496 819.915 74.4191 823.922 75.6875 827.629C76.9529 831.325 81.0446 833.32 84.82 832.08M81.36 835.11C79.0928 835.857 77.8702 838.266 78.6322 840.496C79.3962 842.718 81.8514 843.914 84.1206 843.171C86.3878 842.422 87.6105 840.011 86.8524 837.791C86.0884 835.565 83.6322 834.367 81.36 835.11M96.9091 813.888C93.8182 814.909 92.1558 818.187 93.1954 821.217C94.232 824.24 97.5796 825.873 100.667 824.858C103.751 823.836 105.414 820.561 104.378 817.531C103.344 814.509 99.996 812.876 96.9091 813.888ZM74.8379 816.46C78.0174 815.405 79.7315 812.03 78.67 808.911C77.5986 805.801 74.1555 804.121 70.978 805.164C67.7886 806.21 66.0805 809.583 67.149 812.71C68.2184 815.822 71.6615 817.501 74.8379 816.46Z" fill="#496483" fill-opacity="0.17"/>
<path d="M297.942 650.002C298.022 672.663 317.932 691.87 341.418 691.942L342.867 691.947L343.215 690.587L356.892 637.11L357.626 634.238L354.656 634.954L299.339 648.266L297.937 648.605L297.942 650.002ZM325.582 643.787C326.425 645.972 328.325 647.81 331.182 647.109C333.54 646.532 335.13 643.877 334.496 641.642L355.101 636.683L343.078 683.699C324.365 680.954 309.321 666.413 306.476 648.386L325.582 643.787" fill="#496483" fill-opacity="0.17"/>
<path d="M344.769 654.819C344.017 654.817 343.272 654.958 342.577 655.236C341.882 655.513 341.25 655.921 340.719 656.435C340.187 656.948 339.765 657.557 339.478 658.227C339.19 658.898 339.043 659.617 339.045 660.343C339.043 661.069 339.191 661.787 339.478 662.457C339.765 663.128 340.187 663.736 340.719 664.248C341.148 664.661 341.901 664.663 342.328 664.248C342.54 664.042 342.659 663.763 342.659 663.472C342.659 663.181 342.539 662.902 342.327 662.697C341.677 662.071 341.318 661.232 341.318 660.342C341.318 659.452 341.674 658.615 342.325 657.989C343.63 656.732 345.908 656.732 347.208 657.987C347.424 658.188 347.712 658.3 348.012 658.3C348.312 658.3 348.6 658.188 348.816 657.987C348.921 657.885 349.005 657.764 349.062 657.631C349.118 657.498 349.148 657.356 349.148 657.212C349.148 657.068 349.118 656.925 349.061 656.792C349.004 656.659 348.92 656.539 348.815 656.437C348.284 655.922 347.654 655.514 346.959 655.237C346.265 654.959 345.52 654.817 344.769 654.819M328.258 669.651C328.425 668.968 328.43 668.257 328.271 667.572C328.068 666.703 327.616 665.906 326.967 665.273C326.319 664.64 325.499 664.196 324.602 663.992C324.336 663.933 324.057 663.979 323.825 664.118C323.594 664.258 323.429 664.48 323.366 664.737C323.313 664.993 323.364 665.259 323.507 665.48C323.65 665.701 323.876 665.861 324.137 665.927C325.601 666.255 326.599 667.775 326.253 669.202C326.083 669.908 325.629 670.519 324.993 670.902C324.356 671.284 323.589 671.407 322.859 671.242C322.591 671.183 322.314 671.226 322.082 671.367C321.849 671.508 321.685 671.728 321.625 671.988C321.59 672.132 321.588 672.281 321.621 672.426C321.664 672.609 321.759 672.776 321.896 672.909C322.032 673.042 322.204 673.135 322.392 673.178C323.017 673.321 323.666 673.341 324.299 673.239C324.932 673.137 325.539 672.914 326.082 672.583C326.628 672.258 327.101 671.832 327.475 671.328C327.849 670.825 328.115 670.255 328.258 669.651M319.183 652.745C319.848 652.919 320.544 652.946 321.221 652.825C322.079 652.67 322.874 652.286 323.517 651.716C324.159 651.145 324.623 650.412 324.854 649.599C324.887 649.479 324.896 649.355 324.879 649.233C324.862 649.11 324.821 648.993 324.757 648.886C324.693 648.779 324.608 648.685 324.506 648.61C324.405 648.535 324.289 648.48 324.166 648.448C323.917 648.39 323.655 648.426 323.432 648.549C323.21 648.673 323.046 648.874 322.972 649.111C322.601 650.435 321.078 651.292 319.693 650.929C319.354 650.842 319.035 650.69 318.756 650.483C318.478 650.276 318.244 650.017 318.07 649.722C317.715 649.124 317.619 648.428 317.805 647.764C317.848 647.61 317.851 647.448 317.811 647.294C317.772 647.139 317.693 646.997 317.581 646.88C317.469 646.763 317.328 646.676 317.172 646.626C317.016 646.576 316.849 646.566 316.687 646.596C316.506 646.628 316.339 646.709 316.203 646.829C316.068 646.949 315.97 647.104 315.921 647.275C315.762 647.841 315.72 648.431 315.799 649.012C315.877 649.594 316.074 650.154 316.378 650.662C316.68 651.17 317.084 651.616 317.565 651.974C318.047 652.331 318.596 652.593 319.183 652.745M322.956 659.68C324.247 663.331 328.389 665.298 332.22 664.074C336.049 662.848 338.112 658.892 336.826 655.245C335.539 651.588 331.394 649.625 327.56 650.851C323.737 652.074 321.674 656.03 322.956 659.68M319.823 656.335C319.05 654.143 316.559 652.961 314.252 653.698C311.954 654.437 310.717 656.81 311.485 659.004C312.26 661.196 314.753 662.378 317.05 661.645C319.352 660.907 320.592 658.532 319.823 656.335M341.773 671.368C340.717 668.38 337.327 666.773 334.193 667.778C331.066 668.78 329.377 672.017 330.426 675.001C331.484 677.984 334.871 679.591 338.005 678.59C341.131 677.589 342.82 674.353 341.773 671.368ZM339.113 650.03C340.204 653.104 343.695 654.761 346.921 653.734C350.138 652.699 351.876 649.37 350.796 646.298C349.715 643.214 346.226 641.563 342.992 642.596C339.773 643.63 338.036 646.959 339.113 650.03Z" fill="#496483" fill-opacity="0.17"/>
<path d="M385.775 1060.46C379.631 1038.59 355.258 1025.02 332.553 1030.83L331.152 1031.18L331.18 1032.58L332.285 1087.66L332.345 1090.62L335.022 1089.18L384.89 1062.48L386.154 1061.81L385.775 1060.46ZM360.741 1073.38C359.341 1071.48 357.014 1070.18 354.442 1071.57C352.319 1072.72 351.494 1075.68 352.704 1077.68L334.129 1087.63L333.157 1039.2C351.967 1037.17 370.39 1047.45 377.964 1064.15L360.741 1073.38" fill="#496483" fill-opacity="0.17"/>
<path d="M339.254 1067.52C339.981 1067.34 340.663 1067.01 341.26 1066.57C341.858 1066.13 342.358 1065.58 342.734 1064.95C343.11 1064.32 343.355 1063.63 343.453 1062.91C343.551 1062.19 343.5 1061.46 343.305 1060.75C343.112 1060.05 342.777 1059.4 342.32 1058.82C341.863 1058.25 341.293 1057.76 340.642 1057.4C340.118 1057.11 339.39 1057.3 339.088 1057.8C338.938 1058.06 338.898 1058.36 338.976 1058.64C339.054 1058.92 339.244 1059.16 339.505 1059.3C340.3 1059.74 340.871 1060.46 341.109 1061.32C341.347 1062.18 341.228 1063.08 340.767 1063.85C339.842 1065.39 337.642 1065.96 336.05 1065.07C335.788 1064.93 335.479 1064.9 335.19 1064.97C334.9 1065.05 334.652 1065.23 334.497 1065.48C334.423 1065.6 334.375 1065.74 334.355 1065.88C334.336 1066.02 334.346 1066.17 334.384 1066.31C334.423 1066.45 334.489 1066.58 334.58 1066.69C334.671 1066.8 334.784 1066.9 334.913 1066.97C335.563 1067.34 336.282 1067.57 337.027 1067.67C337.772 1067.76 338.529 1067.71 339.254 1067.52M351.232 1049.06C351.254 1049.77 351.44 1050.45 351.776 1051.08C352.205 1051.86 352.855 1052.52 353.651 1052.97C354.447 1053.42 355.357 1053.64 356.279 1053.62C356.551 1053.61 356.809 1053.49 356.995 1053.3C357.181 1053.11 357.281 1052.85 357.273 1052.59C357.255 1052.33 357.135 1052.08 356.938 1051.9C356.74 1051.73 356.479 1051.63 356.209 1051.63C354.708 1051.68 353.336 1050.46 353.289 1049C353.265 1048.27 353.539 1047.57 354.051 1047.04C354.564 1046.51 355.272 1046.2 356.021 1046.18C356.296 1046.17 356.552 1046.06 356.738 1045.86C356.926 1045.67 357.025 1045.41 357.013 1045.15C357.008 1045 356.97 1044.86 356.9 1044.72C356.809 1044.56 356.673 1044.42 356.505 1044.33C356.338 1044.23 356.147 1044.18 355.954 1044.19C355.312 1044.21 354.68 1044.35 354.096 1044.61C353.511 1044.87 352.985 1045.23 352.549 1045.69C352.109 1046.14 351.765 1046.67 351.539 1047.25C351.313 1047.83 351.209 1048.45 351.232 1049.06M364.524 1063.12C363.835 1063.12 363.155 1063.27 362.533 1063.56C361.746 1063.92 361.081 1064.49 360.613 1065.2C360.145 1065.91 359.894 1066.74 359.888 1067.58C359.888 1067.71 359.913 1067.83 359.962 1067.94C360.011 1068.06 360.083 1068.16 360.173 1068.25C360.263 1068.33 360.371 1068.4 360.489 1068.45C360.607 1068.5 360.733 1068.52 360.861 1068.52C361.117 1068.51 361.361 1068.41 361.542 1068.24C361.724 1068.06 361.829 1067.83 361.836 1067.58C361.84 1066.21 363.082 1065 364.517 1065.01C364.868 1065 365.217 1065.07 365.541 1065.2C365.866 1065.33 366.161 1065.52 366.408 1065.77C366.911 1066.25 367.19 1066.9 367.188 1067.59C367.187 1067.75 367.229 1067.91 367.308 1068.05C367.387 1068.19 367.502 1068.3 367.641 1068.39C367.78 1068.47 367.94 1068.52 368.104 1068.53C368.269 1068.54 368.433 1068.51 368.581 1068.44C368.747 1068.36 368.887 1068.24 368.985 1068.09C369.084 1067.94 369.137 1067.77 369.139 1067.59C369.141 1067 369.023 1066.42 368.792 1065.88C368.561 1065.34 368.22 1064.85 367.791 1064.43C367.363 1064.02 366.854 1063.69 366.293 1063.46C365.732 1063.24 365.131 1063.12 364.524 1063.12M359.022 1057.37C356.799 1054.17 352.271 1053.3 348.898 1055.44C345.528 1057.59 344.594 1061.92 346.813 1065.12C349.035 1068.33 353.564 1069.19 356.939 1067.05C360.304 1064.91 361.238 1060.57 359.022 1057.37M362.945 1059.82C364.278 1061.74 367.001 1062.26 369.032 1060.97C371.054 1059.68 371.613 1057.08 370.284 1055.15C368.948 1053.23 366.224 1052.71 364.201 1053.99C362.175 1055.28 361.614 1057.89 362.945 1059.82M337.717 1050.79C339.538 1053.41 343.243 1054.11 346.001 1052.36C348.753 1050.61 349.518 1047.06 347.705 1044.44C345.885 1041.82 342.183 1041.12 339.424 1042.87C336.673 1044.62 335.908 1048.17 337.717 1050.79ZM345.999 1070.73C344.123 1068.04 340.307 1067.31 337.466 1069.11C334.636 1070.91 333.848 1074.56 335.713 1077.26C337.583 1079.97 341.395 1080.69 344.243 1078.88C347.076 1077.08 347.862 1073.43 345.999 1070.73Z" fill="#496483" fill-opacity="0.17"/>
<path d="M68.0818 664.271C69.7545 660.192 70.3244 655.879 69.8017 651.706C69.6128 650.229 69.1778 648.96 68.6079 647.943C68.5303 647.774 68.4426 647.611 68.3617 647.467C67.7682 646.381 66.9116 645.442 66.4699 644.272C66.0854 643.255 65.9977 642.146 65.502 641.171C65.4413 641.051 65.4076 640.878 65.5998 640.836C65.7752 640.796 67.178 641.768 67.323 641.863C67.6535 642.084 67.9773 642.309 68.301 642.544C69.6263 643.506 70.9179 644.715 70.9246 646.17C70.928 646.411 70.8639 647.007 70.8673 647.245L70.8673 647.93L70.8707 647.94C70.9314 650.917 72.7659 654.777 75.4401 658.233C78.0267 661.575 82.7647 665.35 86.2685 667.906C89.9915 670.622 92.7399 671.695 93.6976 671.47C94.942 671.186 94.652 667.906 94.652 667.906C94.652 667.906 94.652 667.17 94.534 665.953C94.1428 661.907 92.4533 652.517 85.1557 646.926C81.5305 644.145 77.8007 642.89 75.0624 643.16L75.0489 643.16C74.3205 643.229 73.8349 643.313 73.6056 643.313C72.051 643.307 70.9078 642.414 69.7241 641.458C69.2486 641.074 68.6821 640.646 67.7345 639.959C67.4849 639.779 67.06 639.525 67.087 639.398C67.1275 639.205 67.6299 639.075 68.5843 639.215C68.9181 639.264 69.4139 639.329 69.9905 639.675C70.8673 640.2 71.5384 640.62 71.8824 640.777C71.9262 640.8 71.9532 640.803 71.9937 640.816C73.1436 641.387 74.6072 641.778 76.3203 641.846C80.6604 642.013 85.0579 641.093 89.1282 639.117C91.4146 638.009 95.603 635.472 95.5996 633.604C95.5996 632.319 90.5884 630.458 85.5839 630.145C83.628 630.024 81.4293 629.891 79.1024 630.145C73.555 630.745 69.8657 632.391 69.2486 635.511C69.2486 635.521 69.2385 635.521 69.2385 635.521C69.053 636.49 68.3314 637.014 67.4613 637.275C66.7295 637.497 65.9573 637.536 65.1985 637.458C63.6102 637.295 62.0994 636.659 60.6965 635.952C60.2986 635.749 59.904 635.537 59.5128 635.326C58.98 635.032 58.5416 634.589 57.965 634.364C57.3478 634.126 56.8454 634.471 56.5284 634.977C56.3766 635.218 56.2653 635.482 56.1642 635.743C55.9281 636.349 55.7325 637.265 56.2148 637.81C56.6869 638.345 57.4962 638.296 58.1471 638.426C58.8822 638.576 59.5837 638.85 60.2716 639.137C61.4384 639.623 62.5412 640.298 63.3438 641.259C63.8563 641.876 64.1598 642.671 64.1261 643.467C64.0857 644.36 63.4213 644.849 62.676 645.253C62.4332 645.381 62.2107 645.511 61.9982 645.651C59.4353 646.861 58.2853 650.353 58.1403 655.269C58.0763 657.532 58.3865 659.645 58.6731 661.529C59.4016 666.332 61.0203 670.6 62.3017 670.854C64.1666 671.226 67.1409 666.563 68.0818 664.271V664.271Z" fill="#496483" fill-opacity="0.17"/>
<path d="M77.9831 645.162C80.3808 645.488 83.6283 647.164 87.3918 651.448C87.9313 652.061 88.4136 652.73 88.8688 653.401C89.1723 653.854 89.4623 654.314 89.7287 654.784C89.867 655.025 90.0828 655.292 90.1739 655.576C90.4403 656.404 89.3578 655.514 89.1689 655.361C86.5723 653.294 84.1611 651.021 81.3014 649.277C80.4954 648.784 79.6591 648.338 78.7891 647.969C77.6931 647.5 76.5533 647.144 75.4269 646.747C75.056 646.613 74.4321 646.492 74.1623 646.186C73.5081 645.43 75.2954 645.1 75.7102 645.071C76.4487 645.015 77.2513 645.061 77.9831 645.162V645.162ZM92.1366 632.985C91.5565 632.747 90.8787 632.633 90.3391 632.489C88.4473 631.99 86.4947 631.707 84.5354 631.615C83.2472 631.553 81.9523 631.56 80.6674 631.651C80.3774 631.671 77.5076 631.873 77.6695 632.261C77.7943 632.561 78.7553 632.388 79.0251 632.388C82.4042 632.362 85.7596 633.021 89.0307 633.829C89.9277 634.051 90.8281 634.237 91.7589 634.204C92.0826 634.191 92.6357 634.178 92.8919 633.963C93.3742 633.555 92.5008 633.135 92.1366 632.985V632.985ZM65.3404 647.666C65.9508 647.428 67.1142 649.28 67.3334 649.652C67.9775 650.75 68.2912 651.993 68.453 653.245C68.7161 655.292 68.389 656.75 68.3451 657.05C68.0956 658.729 67.7887 658.243 67.5998 657.222C67.5122 656.743 66.8613 652.459 65.4854 648.729C65.4214 648.556 65.1145 647.754 65.3404 647.666Z" fill="#9DB1C8" fill-opacity="0.17"/>
<path d="M82.3908 1001.55C78.1721 999.935 73.7106 999.384 69.394 999.889C67.8664 1000.07 66.5546 1000.49 65.5024 1001.04C65.3271 1001.12 65.1585 1001.2 65.0101 1001.28C63.8871 1001.86 62.9159 1002.68 61.7052 1003.11C60.6531 1003.48 59.5065 1003.57 58.4982 1004.05C58.3734 1004.1 58.1947 1004.14 58.1509 1003.95C58.1104 1003.78 59.1153 1002.43 59.2131 1002.29C59.4424 1001.97 59.6751 1001.65 59.9179 1001.34C60.9128 1000.06 62.1639 998.81 63.6679 998.803C63.9175 998.8 64.5346 998.862 64.7808 998.859L65.4889 998.859L65.4991 998.856C68.5779 998.797 72.5707 997.023 76.1453 994.438C79.6019 991.937 83.507 987.356 86.1509 983.969C88.96 980.369 90.0695 977.712 89.8368 976.786C89.5434 975.583 86.1509 975.863 86.1509 975.863C86.1509 975.863 85.3888 975.863 84.1309 975.978C79.9459 976.356 70.2337 977.989 64.4503 985.045C61.5737 988.55 60.2754 992.156 60.5553 994.803L60.5553 994.816C60.6261 995.52 60.7138 995.99 60.7138 996.211C60.707 997.714 59.783 998.82 58.795 999.964C58.397 1000.42 57.9553 1000.97 57.2437 1001.89C57.0582 1002.13 56.7952 1002.54 56.6637 1002.51C56.4647 1002.47 56.3298 1001.99 56.4748 1001.07C56.5254 1000.74 56.5929 1000.26 56.9503 999.707C57.4933 998.859 57.9283 998.21 58.0902 997.877C58.1138 997.835 58.1171 997.809 58.1306 997.77C58.7208 996.658 59.1254 995.243 59.1963 993.587C59.3682 989.391 58.4173 985.139 56.3737 981.204C55.2271 978.993 52.6035 974.944 50.6711 974.947C49.3425 974.947 47.4169 979.792 47.0932 984.631C46.9684 986.522 46.8301 988.647 47.0932 990.897C47.7137 996.26 49.4167 999.827 52.6439 1000.42C52.654 1000.42 52.654 1000.43 52.654 1000.43C53.6556 1000.61 54.1985 1001.31 54.4683 1002.15C54.6976 1002.86 54.7381 1003.61 54.6572 1004.34C54.4886 1005.88 53.831 1007.34 53.0992 1008.69C52.8901 1009.08 52.6709 1009.46 52.4517 1009.84C52.1482 1010.35 51.6896 1010.78 51.4569 1011.33C51.2107 1011.93 51.5682 1012.42 52.0909 1012.72C52.3404 1012.87 52.6136 1012.98 52.8834 1013.07C53.5106 1013.3 54.4582 1013.49 55.0214 1013.03C55.5744 1012.57 55.5239 1011.79 55.6587 1011.16C55.8139 1010.45 56.0971 1009.77 56.3939 1009.1C56.8964 1007.97 57.5944 1006.91 58.5893 1006.13C59.2266 1005.64 60.0494 1005.34 60.8723 1005.38C61.7963 1005.42 62.3021 1006.06 62.7203 1006.78C62.8518 1007.01 62.9867 1007.23 63.1317 1007.43C64.3828 1009.91 67.9945 1011.02 73.0799 1011.16C75.4203 1011.23 77.6055 1010.93 79.5547 1010.65C84.5221 1009.94 88.9364 1008.38 89.1994 1007.14C89.5839 1005.34 84.7615 1002.46 82.3908 1001.55V1001.55Z" fill="#496483" fill-opacity="0.17"/>
<path d="M62.6261 991.98C62.9633 989.661 64.6967 986.522 69.1279 982.883C69.7619 982.362 70.4532 981.895 71.1479 981.455C71.6166 981.162 72.0921 980.881 72.5777 980.624C72.8273 980.49 73.1038 980.281 73.3972 980.193C74.2537 979.936 73.3331 980.982 73.1746 981.165C71.0366 983.675 68.6861 986.007 66.8819 988.771C66.3727 989.551 65.9107 990.359 65.5297 991.2C65.044 992.26 64.6765 993.362 64.265 994.451C64.1268 994.81 64.002 995.413 63.685 995.674C62.9026 996.306 62.562 994.578 62.5317 994.177C62.4744 993.463 62.5216 992.687 62.6261 991.98V991.98ZM50.0307 978.296C49.7845 978.857 49.6664 979.512 49.5181 980.034C49.0021 981.863 48.7087 983.75 48.6143 985.645C48.5502 986.89 48.557 988.142 48.6514 989.384C48.6716 989.665 48.8807 992.439 49.282 992.283C49.5923 992.162 49.4135 991.233 49.4135 990.972C49.3865 987.705 50.0677 984.461 50.9041 981.299C51.1334 980.431 51.3256 979.561 51.2919 978.661C51.2784 978.348 51.2649 977.813 51.0423 977.566C50.6208 977.099 50.1858 977.944 50.0307 978.296V978.296ZM65.216 1004.2C64.9699 1003.61 66.8853 1002.49 67.2697 1002.28C68.4062 1001.65 69.691 1001.35 70.986 1001.19C73.1038 1000.94 74.6112 1001.26 74.9214 1001.3C76.6582 1001.54 76.1557 1001.84 75.1002 1002.02C74.6045 1002.1 70.1733 1002.73 66.3154 1004.06C66.1367 1004.12 65.3071 1004.42 65.216 1004.2Z" fill="#9DB1C8" fill-opacity="0.17"/>
<path d="M352.905 143.13L352.905 197.905C352.905 199.115 352.407 200.276 351.522 201.132C350.637 201.988 349.436 202.469 348.184 202.469C346.931 202.469 345.731 201.988 344.845 201.132C343.96 200.276 343.462 199.115 343.462 197.905L343.462 143.13C343.462 141.92 343.96 140.759 344.845 139.903C345.731 139.047 346.931 138.566 348.184 138.566C349.436 138.566 350.637 139.047 351.522 139.903C352.407 140.759 352.905 141.92 352.905 143.13ZM367.068 211.598L357.626 211.598L357.626 129.437L367.068 129.437L367.068 211.598ZM338.741 184.211L338.741 193.34L272.645 193.34L272.645 184.211L338.741 184.211ZM338.741 147.695L338.741 156.824L272.645 156.824L272.645 147.695L338.741 147.695ZM338.741 165.953L338.741 175.082L272.645 175.082L272.645 165.953L338.741 165.953Z" fill="#496483" fill-opacity="0.17"/>
<path d="M76.5892 411.907L104.916 459.343C105.542 460.391 105.712 461.637 105.388 462.806C105.064 463.976 104.273 464.973 103.188 465.578C102.104 466.183 100.815 466.347 99.6057 466.034C98.3963 465.721 97.3651 464.956 96.739 463.907L68.4119 416.471C67.7858 415.423 67.6161 414.177 67.9402 413.008C68.2643 411.838 69.0556 410.841 70.1399 410.236C71.2243 409.631 72.513 409.467 73.7225 409.78C74.9319 410.093 75.9631 410.858 76.5892 411.907ZM124.264 464.355L116.087 468.919L73.5961 397.765L81.7734 393.201L124.264 464.355ZM85.5686 454.33L90.2897 462.236L33.0483 494.188L28.3271 486.282L85.5686 454.33ZM66.6838 422.706L71.405 430.612L14.1636 462.564L9.44238 454.658L66.6838 422.706ZM76.1262 438.518L80.8474 446.424L23.606 478.376L18.8848 470.47L76.1262 438.518Z" fill="#496483" fill-opacity="0.17"/>
<path d="M74.8101 226.265C98.2481 226.187 118.115 206.938 118.189 184.231L118.194 182.831L116.788 182.494L61.4755 169.271L58.505 168.561L59.2451 171.432L73.0145 224.914L73.3646 226.27L74.8101 226.265ZM68.3816 199.542C70.6408 198.727 72.5419 196.889 71.8177 194.128C71.2208 191.848 68.4741 190.311 66.1631 190.923L61.0338 171.002L109.663 182.627C106.824 200.718 91.7838 215.263 73.1378 218.014L68.3816 199.542" fill="#496483" fill-opacity="0.17"/>
<path d="M79.7922 180.992C79.7895 181.719 79.9358 182.439 80.2226 183.111C80.5095 183.783 80.9312 184.394 81.4635 184.907C81.9934 185.422 82.6234 185.829 83.3171 186.107C84.0108 186.385 84.7545 186.527 85.5054 186.526C86.2558 186.527 86.9991 186.385 87.6923 186.107C88.3855 185.829 89.015 185.421 89.5444 184.907C89.9712 184.493 89.9732 183.765 89.5444 183.352C89.3313 183.147 89.0427 183.032 88.7419 183.032C88.4411 183.032 88.1526 183.147 87.9398 183.353C87.2921 183.981 86.4246 184.328 85.5044 184.328C84.5842 184.328 83.7177 183.984 83.0701 183.355C81.7709 182.093 81.7709 179.89 83.0681 178.633C83.2762 178.425 83.3925 178.146 83.3925 177.856C83.3925 177.566 83.2762 177.288 83.0681 177.079C82.9629 176.977 82.8379 176.897 82.7004 176.841C82.5629 176.786 82.4154 176.758 82.2666 176.758C82.1177 176.758 81.9703 176.787 81.8329 176.842C81.6954 176.897 81.5705 176.978 81.4655 177.08C80.9329 177.593 80.5109 178.202 80.2236 178.874C79.9364 179.545 79.7898 180.265 79.7922 180.992M95.1323 196.955C94.426 196.793 93.6908 196.789 92.9825 196.942C92.0835 197.139 91.2596 197.575 90.6049 198.202C89.9502 198.83 89.491 199.622 89.2798 200.49C89.2189 200.747 89.2657 201.017 89.41 201.24C89.5543 201.464 89.7843 201.624 90.0498 201.684C90.3147 201.735 90.5898 201.687 90.8188 201.548C91.0477 201.409 91.2132 201.191 91.2814 200.939C91.6206 199.524 93.1924 198.558 94.6687 198.893C95.3985 199.058 96.0307 199.496 96.4263 200.112C96.822 200.727 96.9487 201.469 96.7788 202.175C96.7171 202.433 96.7618 202.702 96.9081 202.926C97.0533 203.151 97.2811 203.31 97.5497 203.367C97.699 203.401 97.8532 203.403 98.0034 203.371C98.1921 203.33 98.365 203.238 98.5025 203.106C98.64 202.974 98.7366 202.808 98.7813 202.626C98.9284 202.021 98.9497 201.395 98.844 200.782C98.7383 200.17 98.5077 199.584 98.1655 199.058C97.8297 198.531 97.3885 198.073 96.8678 197.712C96.347 197.351 95.757 197.093 95.1323 196.955M77.6463 205.729C77.8267 205.086 77.8549 204.412 77.7289 203.758C77.5694 202.929 77.1719 202.16 76.5819 201.539C75.9919 200.917 75.2332 200.469 74.3923 200.245C74.2689 200.213 74.1403 200.205 74.0138 200.222C73.8873 200.238 73.7653 200.278 73.6548 200.34C73.5443 200.402 73.4475 200.484 73.3699 200.582C73.2923 200.68 73.2354 200.792 73.2025 200.911C73.142 201.151 73.1795 201.405 73.307 201.62C73.4345 201.835 73.6425 201.994 73.8879 202.065C75.2568 202.424 76.1441 203.896 75.7681 205.235C75.6778 205.564 75.5209 205.872 75.3066 206.141C75.0923 206.41 74.8248 206.636 74.5196 206.805C73.9008 207.148 73.1816 207.24 72.4941 207.061C72.3353 207.019 72.168 207.017 72.0081 207.055C71.8482 207.093 71.7009 207.169 71.5801 207.277C71.4593 207.385 71.3689 207.522 71.3176 207.673C71.2662 207.824 71.2555 207.985 71.2864 208.142C71.32 208.316 71.4036 208.478 71.5278 208.609C71.652 208.74 71.8117 208.835 71.9888 208.882C72.5738 209.036 73.1846 209.076 73.7859 209.001C74.3871 208.925 74.9668 208.735 75.4915 208.441C76.0179 208.148 76.4792 207.758 76.849 207.293C77.2188 206.827 77.4898 206.296 77.6463 205.729M84.82 202.08C88.5963 200.833 90.6308 196.828 89.3643 193.124C88.0959 189.422 84.0042 187.427 80.2319 188.671C76.4496 189.915 74.4191 193.922 75.6875 197.629C76.9529 201.325 81.0446 203.32 84.82 202.08M81.36 205.11C79.0928 205.857 77.8702 208.266 78.6322 210.496C79.3962 212.718 81.8514 213.914 84.1206 213.171C86.3878 212.422 87.6105 210.011 86.8524 207.791C86.0884 205.565 83.6322 204.367 81.36 205.11M96.9091 183.888C93.8182 184.909 92.1558 188.187 93.1954 191.217C94.232 194.24 97.5796 195.873 100.667 194.858C103.751 193.836 105.414 190.561 104.378 187.531C103.344 184.509 99.996 182.876 96.9091 183.888ZM74.8379 186.46C78.0174 185.405 79.7315 182.03 78.67 178.911C77.5986 175.801 74.1555 174.121 70.978 175.164C67.7886 176.21 66.0805 179.583 67.149 182.71C68.2184 185.822 71.6615 187.501 74.8379 186.46Z" fill="#496483" fill-opacity="0.17"/>
<path d="M297.942 20.0025C298.022 42.6627 317.932 61.8701 341.418 61.9422L342.867 61.947L343.215 60.587L356.892 7.11039L357.626 4.23843L354.656 4.95401L299.339 18.2664L297.937 18.605L297.942 20.0025ZM325.582 13.7873C326.425 15.9715 328.325 17.8096 331.182 17.1094C333.54 16.5323 335.13 13.8767 334.496 11.6424L355.101 6.68335L343.078 53.6985C324.365 50.9535 309.321 36.4129 306.476 18.3857L325.582 13.7873" fill="#496483" fill-opacity="0.17"/>
<path d="M344.769 24.8194C344.017 24.8168 343.272 24.9583 342.577 25.2356C341.882 25.513 341.25 25.9207 340.719 26.4353C340.187 26.9476 339.765 27.5567 339.478 28.2274C339.19 28.8981 339.043 29.6171 339.045 30.3431C339.043 31.0686 339.191 31.7872 339.478 32.4574C339.765 33.1276 340.187 33.7362 340.719 34.248C341.148 34.6607 341.901 34.6626 342.328 34.248C342.54 34.042 342.659 33.763 342.659 33.4721C342.659 33.1813 342.539 32.9024 342.327 32.6966C341.677 32.0705 341.318 31.2318 341.318 30.3421C341.318 29.4525 341.674 28.6147 342.325 27.9886C343.63 26.7325 345.908 26.7325 347.208 27.9867C347.424 28.1879 347.712 28.3003 348.012 28.3003C348.312 28.3003 348.6 28.1879 348.816 27.9867C348.921 27.8849 349.005 27.7641 349.062 27.6311C349.118 27.4982 349.148 27.3556 349.148 27.2117C349.148 27.0678 349.118 26.9253 349.061 26.7924C349.004 26.6595 348.92 26.5388 348.815 26.4372C348.284 25.9223 347.654 25.5143 346.959 25.2366C346.265 24.9589 345.52 24.8171 344.769 24.8194M328.258 39.6505C328.425 38.9676 328.43 38.2569 328.271 37.5721C328.068 36.7028 327.616 35.9063 326.967 35.2733C326.319 34.6404 325.499 34.1964 324.602 33.9922C324.336 33.9334 324.057 33.9786 323.825 34.1181C323.594 34.2576 323.429 34.4799 323.366 34.7366C323.313 34.9927 323.364 35.2587 323.507 35.4801C323.65 35.7015 323.876 35.8615 324.137 35.9274C325.601 36.2553 326.599 37.775 326.253 39.2023C326.083 39.9079 325.629 40.5191 324.993 40.9016C324.356 41.2841 323.589 41.4067 322.859 41.2423C322.591 41.1827 322.314 41.226 322.082 41.3674C321.849 41.5078 321.685 41.728 321.625 41.9877C321.59 42.132 321.588 42.2811 321.621 42.4263C321.664 42.6088 321.759 42.7759 321.896 42.9089C322.032 43.0418 322.204 43.1352 322.392 43.1784C323.017 43.3207 323.666 43.3413 324.299 43.239C324.932 43.1368 325.539 42.9139 326.082 42.5831C326.628 42.2584 327.101 41.8319 327.475 41.3284C327.849 40.8249 328.115 40.2545 328.258 39.6505M319.183 22.7448C319.848 22.9192 320.544 22.9464 321.221 22.8246C322.079 22.6704 322.874 22.2861 323.517 21.7157C324.159 21.1453 324.623 20.4117 324.854 19.5987C324.887 19.4795 324.896 19.3551 324.879 19.2328C324.862 19.1105 324.821 18.9925 324.757 18.8857C324.693 18.7789 324.608 18.6853 324.506 18.6102C324.405 18.5352 324.289 18.4802 324.166 18.4484C323.917 18.39 323.655 18.4262 323.432 18.5495C323.21 18.6728 323.046 18.8738 322.972 19.1111C322.601 20.4345 321.078 21.2925 319.693 20.9289C319.354 20.8416 319.035 20.6899 318.756 20.4827C318.478 20.2755 318.244 20.0169 318.07 19.7218C317.715 19.1236 317.619 18.4282 317.805 17.7636C317.848 17.61 317.851 17.4483 317.811 17.2937C317.772 17.1391 317.693 16.9967 317.581 16.8799C317.469 16.7631 317.328 16.6757 317.172 16.626C317.016 16.5764 316.849 16.566 316.687 16.5959C316.506 16.6284 316.339 16.7093 316.203 16.8293C316.068 16.9494 315.97 17.1038 315.921 17.275C315.762 17.8406 315.72 18.4312 315.799 19.0124C315.877 19.5937 316.074 20.1542 316.378 20.6615C316.68 21.1704 317.084 21.6164 317.565 21.9739C318.047 22.3314 318.596 22.5934 319.183 22.7448M322.956 29.6804C324.247 33.3314 328.389 35.2983 332.22 34.074C336.049 32.8476 338.112 28.8917 336.826 25.2445C335.539 21.5877 331.394 19.6247 327.56 20.851C323.737 22.0744 321.674 26.0303 322.956 29.6804M319.823 26.3352C319.05 24.1433 316.559 22.9612 314.252 23.6979C311.954 24.4366 310.717 26.8104 311.485 29.0043C312.26 31.1962 314.753 32.3783 317.05 31.6454C319.352 30.9067 320.592 28.532 319.823 26.3352M341.773 41.3683C340.717 38.38 337.327 36.7728 334.193 37.7779C331.066 38.7801 329.377 42.0166 330.426 45.0011C331.484 47.9836 334.871 49.5908 338.005 48.5896C341.131 47.5893 342.82 44.3528 341.773 41.3683ZM339.113 20.0296C340.204 23.1035 343.695 24.7607 346.921 23.7345C350.138 22.6986 351.876 19.3698 350.796 16.2978C349.715 13.2142 346.226 11.5628 342.992 12.5958C339.773 13.6297 338.036 16.9585 339.113 20.0296Z" fill="#496483" fill-opacity="0.17"/>
<path d="M385.775 430.457C379.631 408.589 355.258 395.018 332.553 400.826L331.152 401.184L331.18 402.584L332.285 457.661L332.345 460.619L335.022 459.185L384.89 432.484L386.154 431.806L385.775 430.457ZM360.741 443.377C359.341 441.478 357.014 440.178 354.442 441.569C352.319 442.717 351.494 445.68 352.704 447.679L334.129 457.626L333.157 409.204C351.967 407.173 370.39 417.454 377.964 434.154L360.741 443.377" fill="#496483" fill-opacity="0.17"/>
<path d="M339.254 437.522C339.981 437.337 340.663 437.014 341.26 436.572C341.858 436.13 342.358 435.578 342.734 434.948C343.11 434.32 343.355 433.626 343.453 432.906C343.551 432.187 343.5 431.455 343.305 430.754C343.112 430.053 342.777 429.396 342.32 428.821C341.863 428.245 341.293 427.763 340.642 427.402C340.118 427.11 339.39 427.297 339.088 427.804C338.938 428.056 338.898 428.356 338.976 428.636C339.054 428.917 339.244 429.157 339.505 429.302C340.3 429.745 340.871 430.465 341.109 431.324C341.347 432.184 341.228 433.082 340.767 433.849C339.842 435.389 337.642 435.959 336.05 435.073C335.788 434.933 335.479 434.896 335.19 434.972C334.9 435.047 334.652 435.227 334.497 435.476C334.423 435.6 334.375 435.738 334.355 435.881C334.336 436.023 334.346 436.168 334.384 436.307C334.423 436.446 334.489 436.576 334.58 436.691C334.671 436.805 334.784 436.9 334.913 436.972C335.563 437.337 336.282 437.573 337.027 437.667C337.772 437.762 338.529 437.713 339.254 437.522M351.232 419.065C351.254 419.766 351.44 420.454 351.776 421.076C352.205 421.865 352.855 422.521 353.651 422.97C354.447 423.419 355.357 423.643 356.279 423.616C356.551 423.606 356.809 423.492 356.995 423.3C357.181 423.107 357.281 422.851 357.273 422.587C357.255 422.327 357.135 422.082 356.938 421.905C356.74 421.727 356.479 421.628 356.209 421.63C354.708 421.68 353.336 420.462 353.289 418.996C353.265 418.272 353.539 417.568 354.051 417.04C354.564 416.511 355.272 416.2 356.021 416.176C356.296 416.167 356.552 416.056 356.738 415.861C356.926 415.667 357.025 415.414 357.013 415.148C357.008 415 356.97 414.855 356.9 414.723C356.809 414.558 356.673 414.42 356.505 414.326C356.338 414.231 356.147 414.184 355.954 414.19C355.312 414.209 354.68 414.351 354.096 414.608C353.511 414.865 352.985 415.232 352.549 415.688C352.109 416.138 351.765 416.669 351.539 417.248C351.313 417.828 351.209 418.446 351.232 419.065M364.524 433.124C363.835 433.122 363.155 433.27 362.533 433.557C361.746 433.92 361.081 434.491 360.613 435.202C360.145 435.914 359.894 436.739 359.888 437.582C359.888 437.705 359.913 437.828 359.962 437.942C360.011 438.055 360.083 438.159 360.173 438.246C360.263 438.333 360.371 438.403 360.489 438.45C360.607 438.497 360.733 438.521 360.861 438.521C361.117 438.515 361.361 438.414 361.542 438.24C361.724 438.065 361.829 437.83 361.836 437.582C361.84 436.211 363.082 435.001 364.517 435.006C364.868 435.005 365.217 435.072 365.541 435.202C365.866 435.333 366.161 435.524 366.408 435.765C366.911 436.254 367.19 436.902 367.188 437.591C367.187 437.75 367.229 437.906 367.308 438.046C367.387 438.186 367.502 438.303 367.641 438.388C367.78 438.473 367.94 438.522 368.104 438.531C368.269 438.54 368.433 438.508 368.581 438.439C368.747 438.362 368.887 438.242 368.985 438.092C369.084 437.942 369.137 437.769 369.139 437.591C369.141 437.005 369.023 436.424 368.792 435.882C368.561 435.34 368.22 434.848 367.791 434.434C367.363 434.018 366.854 433.689 366.293 433.464C365.732 433.239 365.131 433.123 364.524 433.124M359.022 427.369C356.799 424.165 352.271 423.302 348.898 425.443C345.528 427.586 344.594 431.923 346.813 435.124C349.035 438.334 353.564 439.193 356.939 437.049C360.304 434.911 361.238 430.574 359.022 427.369M362.945 429.816C364.278 431.74 367.001 432.258 369.032 430.969C371.054 429.681 371.613 427.078 370.284 425.151C368.948 423.228 366.224 422.71 364.201 423.993C362.175 425.282 361.614 427.886 362.945 429.816M337.717 420.788C339.538 423.41 343.243 424.114 346.001 422.359C348.753 420.608 349.518 417.06 347.705 414.439C345.885 411.823 342.183 411.118 339.424 412.87C336.673 414.618 335.908 418.167 337.717 420.788ZM345.999 440.734C344.123 438.037 340.307 437.31 337.466 439.109C334.636 440.914 333.848 444.565 335.713 447.262C337.583 449.97 341.395 450.692 344.243 448.885C347.076 447.081 347.862 443.431 345.999 440.734Z" fill="#496483" fill-opacity="0.17"/>
<path d="M68.0818 34.2711C69.7545 30.1924 70.3244 25.8789 69.8017 21.7057C69.6128 20.2287 69.1778 18.9604 68.6079 17.9432C68.5303 17.7737 68.4426 17.6106 68.3617 17.4672C67.7682 16.3815 66.9116 15.4425 66.4699 14.272C66.0854 13.2548 65.9977 12.1463 65.502 11.1714C65.4413 11.0508 65.4076 10.878 65.5998 10.8356C65.7752 10.7965 67.178 11.768 67.323 11.8626C67.6535 12.0843 67.9773 12.3093 68.301 12.544C69.6263 13.5058 70.9179 14.7154 70.9246 16.1696C70.928 16.4108 70.8639 17.0075 70.8673 17.2455L70.8673 17.9302L70.8707 17.9399C70.9314 20.9167 72.7659 24.7769 75.4401 28.2329C78.0267 31.5748 82.7647 35.3503 86.2685 37.9065C89.9915 40.6223 92.7399 41.695 93.6976 41.47C94.942 41.1864 94.652 37.9065 94.652 37.9065C94.652 37.9065 94.652 37.1696 94.534 35.9535C94.1428 31.9074 92.4533 22.5175 85.1557 16.926C81.5305 14.1449 77.8007 12.8896 75.0624 13.1602L75.0489 13.1602C74.3205 13.2287 73.8349 13.3135 73.6056 13.3135C72.051 13.3069 70.9078 12.4136 69.7241 11.4583C69.2486 11.0736 68.6821 10.6465 67.7345 9.95854C67.4849 9.77922 67.06 9.52491 67.087 9.39776C67.1275 9.2054 67.6299 9.07498 68.5843 9.21518C68.9181 9.26408 69.4139 9.32929 69.9905 9.67489C70.8673 10.1998 71.5384 10.6204 71.8824 10.7769C71.9262 10.7997 71.9532 10.803 71.9937 10.816C73.1436 11.3866 74.6072 11.7778 76.3203 11.8463C80.6604 12.0126 85.0579 11.0932 89.1282 9.11737C91.4146 8.00884 95.603 5.47227 95.5996 3.60408C95.5996 2.31949 90.5884 0.457817 85.5839 0.144821C83.628 0.0241875 81.4293 -0.109488 79.1024 0.144821C73.555 0.744729 69.8657 2.39122 69.2486 5.51139C69.2486 5.52118 69.2385 5.52118 69.2385 5.52118C69.053 6.48951 68.3314 7.01443 67.4613 7.27526C66.7295 7.49696 65.9573 7.53609 65.1985 7.45784C63.6102 7.29482 62.0994 6.65904 60.6965 5.95154C60.2986 5.7494 59.904 5.53748 59.5128 5.32555C58.98 5.03212 58.5416 4.58871 57.965 4.36374C57.3478 4.12573 56.8454 4.47133 56.5284 4.97669C56.3766 5.21796 56.2653 5.48205 56.1642 5.74288C55.9281 6.34931 55.7325 7.26547 56.2148 7.80996C56.6869 8.34466 57.4962 8.29575 58.1471 8.42617C58.8822 8.57614 59.5837 8.85001 60.2716 9.13693C61.4384 9.62272 62.5412 10.2976 63.3438 11.2594C63.8563 11.8756 64.1598 12.6712 64.1261 13.4667C64.0857 14.36 63.4213 14.8491 62.676 15.2534C62.4332 15.3805 62.2107 15.511 61.9982 15.6512C59.4353 16.8608 58.2853 20.3526 58.1403 25.2693C58.0763 27.532 58.3865 29.6447 58.6731 31.5292C59.4016 36.3317 61.0203 40.5995 62.3017 40.8538C64.1666 41.2255 67.1409 36.5632 68.0818 34.2711V34.2711Z" fill="#496483" fill-opacity="0.17"/>
<path d="M77.9831 15.1622C80.3808 15.4882 83.6283 17.1641 87.3918 21.4482C87.9313 22.0611 88.4136 22.7295 88.8688 23.4012C89.1723 23.8543 89.4623 24.3141 89.7287 24.7836C89.867 25.0248 90.0828 25.2922 90.1739 25.5758C90.4403 26.404 89.3578 25.5139 89.1689 25.3606C86.5723 23.2936 84.1611 21.0211 81.3014 19.2768C80.4954 18.7845 79.6591 18.3378 78.7891 17.9694C77.6931 17.4999 76.5533 17.1445 75.4269 16.7467C75.056 16.6131 74.4321 16.4924 74.1623 16.1859C73.5081 15.4295 75.2954 15.1002 75.7102 15.0709C76.4487 15.0155 77.2513 15.0611 77.9831 15.1622V15.1622ZM92.1366 2.9847C91.5565 2.74669 90.8787 2.63258 90.3391 2.48912C88.4473 1.99029 86.4947 1.70663 84.5354 1.61534C83.2472 1.5534 81.9523 1.55992 80.6674 1.65121C80.3774 1.67077 77.5076 1.87291 77.6695 2.2609C77.7943 2.56085 78.7553 2.38805 79.0251 2.38805C82.4042 2.36197 85.7596 3.02056 89.0307 3.82914C89.9277 4.05084 90.8281 4.23668 91.7589 4.20408C92.0826 4.19104 92.6357 4.178 92.8919 3.96281C93.3742 3.55527 92.5008 3.13468 92.1366 2.9847V2.9847ZM65.3404 17.6662C65.9508 17.4281 67.1142 19.28 67.3334 19.6517C67.9775 20.7505 68.2912 21.9927 68.453 23.2447C68.7161 25.2922 68.389 26.7496 68.3451 27.0495C68.0956 28.7286 67.7887 28.2428 67.5998 27.2223C67.5122 26.743 66.8613 22.4589 65.4854 18.729C65.4214 18.5562 65.1145 17.7542 65.3404 17.6662Z" fill="#9DB1C8" fill-opacity="0.17"/>
<path d="M82.3908 371.552C78.1721 369.935 73.7106 369.384 69.394 369.889C67.8664 370.072 66.5546 370.492 65.5024 371.043C65.3271 371.118 65.1585 371.203 65.0101 371.281C63.8871 371.855 62.9159 372.683 61.7052 373.11C60.6531 373.482 59.5065 373.567 58.4982 374.046C58.3734 374.105 58.1947 374.137 58.1509 373.952C58.1104 373.782 59.1153 372.426 59.2131 372.285C59.4424 371.966 59.6751 371.653 59.9179 371.34C60.9128 370.059 62.1639 368.81 63.6679 368.803C63.9175 368.8 64.5346 368.862 64.7808 368.859L65.4889 368.859L65.4991 368.856C68.5779 368.797 72.5707 367.023 76.1453 364.438C79.6019 361.937 83.507 357.356 86.1509 353.969C88.96 350.369 90.0695 347.712 89.8368 346.786C89.5434 345.583 86.1509 345.863 86.1509 345.863C86.1509 345.863 85.3888 345.863 84.1309 345.978C79.9459 346.356 70.2337 347.989 64.4503 355.045C61.5737 358.55 60.2754 362.156 60.5553 364.803L60.5553 364.816C60.6261 365.52 60.7138 365.99 60.7138 366.211C60.707 367.714 59.783 368.82 58.795 369.964C58.397 370.424 57.9553 370.972 57.2437 371.888C57.0582 372.129 56.7952 372.54 56.6637 372.514C56.4647 372.475 56.3298 371.989 56.4748 371.066C56.5254 370.743 56.5929 370.264 56.9503 369.707C57.4933 368.859 57.9283 368.21 58.0902 367.877C58.1138 367.835 58.1171 367.809 58.1306 367.77C58.7208 366.658 59.1254 365.243 59.1963 363.587C59.3682 359.391 58.4173 355.139 56.3737 351.204C55.2271 348.993 52.6035 344.944 50.6711 344.947C49.3425 344.947 47.4169 349.792 47.0932 354.631C46.9684 356.522 46.8301 358.647 47.0932 360.897C47.7137 366.26 49.4167 369.827 52.6439 370.424C52.654 370.424 52.654 370.434 52.654 370.434C53.6556 370.613 54.1985 371.311 54.4683 372.152C54.6976 372.859 54.7381 373.606 54.6572 374.34C54.4886 375.875 53.831 377.336 53.0992 378.692C52.8901 379.077 52.6709 379.458 52.4517 379.837C52.1482 380.352 51.6896 380.776 51.4569 381.333C51.2107 381.93 51.5682 382.415 52.0909 382.722C52.3404 382.869 52.6136 382.976 52.8834 383.074C53.5106 383.302 54.4582 383.491 55.0214 383.025C55.5744 382.569 55.5239 381.786 55.6587 381.157C55.8139 380.446 56.0971 379.768 56.3939 379.103C56.8964 377.975 57.5944 376.909 58.5893 376.133C59.2266 375.637 60.0494 375.344 60.8723 375.376C61.7963 375.415 62.3021 376.058 62.7203 376.778C62.8518 377.013 62.9867 377.228 63.1317 377.434C64.3828 379.912 67.9945 381.023 73.0799 381.163C75.4203 381.225 77.6055 380.925 79.5547 380.648C84.5221 379.944 88.9364 378.379 89.1994 377.14C89.5839 375.337 84.7615 372.462 82.3908 371.552V371.552Z" fill="#496483" fill-opacity="0.17"/>
<path d="M62.6261 361.98C62.9633 359.661 64.6967 356.522 69.1279 352.883C69.7619 352.362 70.4532 351.895 71.1479 351.455C71.6166 351.162 72.0921 350.881 72.5777 350.624C72.8273 350.49 73.1038 350.281 73.3972 350.193C74.2537 349.936 73.3331 350.982 73.1746 351.165C71.0366 353.675 68.6861 356.007 66.8819 358.771C66.3727 359.551 65.9107 360.359 65.5297 361.2C65.044 362.26 64.6765 363.362 64.265 364.451C64.1268 364.81 64.002 365.413 63.685 365.674C62.9026 366.306 62.562 364.578 62.5317 364.177C62.4744 363.463 62.5216 362.687 62.6261 361.98V361.98ZM50.0307 348.296C49.7845 348.857 49.6664 349.512 49.5181 350.034C49.0021 351.863 48.7087 353.75 48.6143 355.645C48.5502 356.89 48.557 358.142 48.6514 359.384C48.6716 359.665 48.8807 362.439 49.282 362.283C49.5923 362.162 49.4135 361.233 49.4135 360.972C49.3865 357.705 50.0677 354.461 50.9041 351.299C51.1334 350.431 51.3256 349.561 51.2919 348.661C51.2784 348.348 51.2649 347.813 51.0423 347.566C50.6208 347.099 50.1858 347.944 50.0307 348.296V348.296ZM65.216 374.203C64.9699 373.613 66.8853 372.488 67.2697 372.276C68.4062 371.653 69.691 371.35 70.986 371.193C73.1038 370.939 74.6112 371.255 74.9214 371.298C76.6582 371.539 76.1557 371.836 75.1002 372.018C74.6045 372.103 70.1733 372.732 66.3154 374.063C66.1367 374.125 65.3071 374.421 65.216 374.203Z" fill="#9DB1C8" fill-opacity="0.17"/>
</svg>
