<svg width="121" height="121" viewBox="0 0 121 121" fill="none" xmlns="http://www.w3.org/2000/svg">
<path d="M36.3108 121C32.9823 121 30.1339 119.816 27.7657 117.449C25.3934 115.077 24.2072 112.228 24.2072 108.9C24.2072 105.573 25.3934 102.723 27.7657 100.351C30.1339 97.9838 32.9823 96.8 36.3108 96.8C39.6393 96.8 42.4877 97.9838 44.8559 100.351C47.2283 102.723 48.4144 105.573 48.4144 108.9C48.4144 112.228 47.2283 115.077 44.8559 117.449C42.4877 119.816 39.6393 121 36.3108 121ZM96.8288 121C93.5003 121 90.6519 119.816 88.2837 117.449C85.9114 115.077 84.7252 112.228 84.7252 108.9C84.7252 105.573 85.9114 102.723 88.2837 100.351C90.6519 97.9838 93.5003 96.8 96.8288 96.8C100.157 96.8 103.008 97.9838 105.38 100.351C107.748 102.723 108.932 105.573 108.932 108.9C108.932 112.228 107.748 115.077 105.38 117.449C103.008 119.816 100.157 121 96.8288 121ZM31.1668 24.2L45.6911 54.45H88.0537L104.696 24.2H31.1668ZM36.3108 90.75C31.772 90.75 28.3426 88.7575 26.0227 84.7726C23.7029 80.7917 23.602 76.835 25.7202 72.9025L33.8901 58.08L12.1036 12.1H5.90051C4.18583 12.1 2.77374 11.5192 1.66425 10.3576C0.554748 9.20003 0 7.76417 0 6.05C0 4.33583 0.580973 2.89795 1.74292 1.73635C2.90083 0.578783 4.33712 0 6.0518 0H15.886C16.9955 0 18.0545 0.302501 19.0632 0.907501C20.0718 1.5125 20.8283 2.36958 21.3326 3.47875L25.4176 12.1H114.682C117.405 12.1 119.271 13.1083 120.28 15.125C121.288 17.1417 121.238 19.2592 120.128 21.4775L98.6444 60.1975C97.5349 62.2142 96.0723 63.7771 94.2568 64.8863C92.4413 65.9954 90.3736 66.55 88.0537 66.55H42.9678L36.3108 78.65H103.032C104.747 78.65 106.159 79.2288 107.268 80.3864C108.378 81.548 108.932 82.9858 108.932 84.7C108.932 86.4142 108.351 87.85 107.19 89.0076C106.032 90.1692 104.595 90.75 102.881 90.75H36.3108Z" fill="white"/>
</svg>
