<svg width="121" height="126" viewBox="0 0 121 126" fill="none" xmlns="http://www.w3.org/2000/svg">
<path d="M96.8 100.8C100.009 100.8 103.087 102.128 105.356 104.49C107.625 106.853 108.9 110.058 108.9 113.4C108.9 116.742 107.625 119.947 105.356 122.31C103.087 124.673 100.009 126 96.8 126C93.5909 126 90.5132 124.673 88.244 122.31C85.9748 119.947 84.7 116.742 84.7 113.4C84.7 106.407 90.0845 100.8 96.8 100.8ZM0 0H19.7835L25.4705 12.6H114.95C116.555 12.6 118.093 13.2637 119.228 14.4452C120.363 15.6267 121 17.2291 121 18.9C121 19.971 120.697 21.042 120.274 22.05L98.615 62.811C96.558 66.654 92.565 69.3 88.0275 69.3H42.955L37.51 79.569L37.3285 80.325C37.3285 80.7427 37.4879 81.1433 37.7715 81.4387C38.0552 81.7341 38.4399 81.9 38.841 81.9H108.9V94.5H36.3C33.0909 94.5 30.0132 93.1725 27.744 90.8095C25.4748 88.4466 24.2 85.2417 24.2 81.9C24.2 79.695 24.7445 77.616 25.652 75.852L33.88 60.417L12.1 12.6H0V0ZM36.3 100.8C39.5091 100.8 42.5868 102.128 44.856 104.49C47.1252 106.853 48.4 110.058 48.4 113.4C48.4 116.742 47.1252 119.947 44.856 122.31C42.5868 124.673 39.5091 126 36.3 126C33.0909 126 30.0132 124.673 27.744 122.31C25.4748 119.947 24.2 116.742 24.2 113.4C24.2 106.407 29.5845 100.8 36.3 100.8ZM90.75 56.7L107.569 25.2H31.097L45.375 56.7H90.75Z" fill="white"/>
</svg>
