<svg width="1440" height="1024" viewBox="0 0 1440 1024" fill="none" xmlns="http://www.w3.org/2000/svg">
<g clip-path="url(#clip0_51_1300)">
<rect width="1440" height="1024" fill="#222222"/>
<path d="M428.833 147.75H600.167C603.953 147.75 607.585 149.251 610.263 151.924C612.94 154.596 614.444 158.221 614.444 162C614.444 165.779 612.94 169.404 610.263 172.076C607.585 174.749 603.953 176.25 600.167 176.25H428.833C425.047 176.25 421.415 174.749 418.737 172.076C416.06 169.404 414.556 165.779 414.556 162C414.556 158.221 416.06 154.596 418.737 151.924C421.415 149.251 425.047 147.75 428.833 147.75M643 105V133.5H386V105H643ZM557.333 190.5H585.889V390H557.333V190.5ZM443.111 190.5H471.667V390H443.111V190.5ZM500.222 190.5H528.778V390H500.222V190.5Z" fill="#496483" fill-opacity="0.17"/>
<path d="M1244.44 864.724L1409.93 820.38C1413.59 819.399 1417.49 819.91 1420.77 821.798C1424.04 823.686 1426.43 826.798 1427.41 830.449C1428.39 834.099 1427.88 837.99 1425.98 841.264C1424.09 844.538 1420.97 846.928 1417.31 847.908L1251.81 892.253C1248.16 893.233 1244.26 892.723 1240.98 890.834C1237.7 888.946 1235.31 885.834 1234.34 882.184C1233.36 878.533 1233.87 874.643 1235.77 871.368C1237.66 868.094 1240.78 865.704 1244.44 864.724M1440.24 768L1447.62 795.529L1199.38 862.045L1192 834.517L1440.24 768ZM1379.62 872.759L1407.21 865.368L1458.84 1058.07L1431.26 1065.46L1379.62 872.759ZM1269.29 902.322L1296.88 894.931L1348.51 1087.63L1320.93 1095.02L1269.29 902.322ZM1324.46 887.54L1352.04 880.15L1403.68 1072.85L1376.09 1080.24L1324.46 887.54Z" fill="#496483" fill-opacity="0.17"/>
<path d="M105.114 1009.6C92.6042 1004.64 79.3742 1002.95 66.5742 1004.5C62.0442 1005.06 58.1542 1006.35 55.0342 1008.04C54.5142 1008.27 54.0142 1008.53 53.5742 1008.77C50.2442 1010.53 47.3642 1013.07 43.7742 1014.38C40.6542 1015.52 37.2542 1015.78 34.2642 1017.25C33.8942 1017.43 33.3642 1017.53 33.2342 1016.96C33.1142 1016.44 36.0942 1012.28 36.3842 1011.85C37.0642 1010.87 37.7542 1009.91 38.4742 1008.95C41.4242 1005.02 45.1342 1001.19 49.5942 1001.17C50.3342 1001.16 52.1642 1001.35 52.8942 1001.34H54.9942L55.0242 1001.33C64.1542 1001.15 75.9942 995.71 86.5942 987.78C96.8442 980.11 108.424 966.06 116.264 955.67C124.594 944.63 127.884 936.48 127.194 933.64C126.324 929.95 116.264 930.81 116.264 930.81C116.264 930.81 114.004 930.81 110.274 931.16C97.8642 932.32 69.0642 937.33 51.9142 958.97C43.3842 969.72 39.5342 980.78 40.3642 988.9V988.94C40.5742 991.1 40.8342 992.54 40.8342 993.22C40.8142 997.83 38.0742 1001.22 35.1442 1004.73C33.9642 1006.14 32.6542 1007.82 30.5442 1010.63C29.9942 1011.37 29.2142 1012.63 28.8242 1012.55C28.2342 1012.43 27.8342 1010.94 28.2642 1008.11C28.4142 1007.12 28.6142 1005.65 29.6742 1003.94C31.2842 1001.34 32.5742 999.35 33.0542 998.33C33.1242 998.2 33.1342 998.12 33.1742 998C34.9242 994.59 36.1242 990.25 36.3342 985.17C36.8442 972.3 34.0242 959.26 27.9642 947.19C24.5642 940.41 16.7842 927.99 11.0542 928C7.11419 928 1.40419 942.86 0.444188 957.7C0.0741879 963.5 -0.335812 970.02 0.444188 976.92C2.28419 993.37 7.33419 1004.31 16.9042 1006.14C16.9342 1006.14 16.9342 1006.17 16.9342 1006.17C19.9042 1006.72 21.5142 1008.86 22.3142 1011.44C22.9942 1013.61 23.1142 1015.9 22.8742 1018.15C22.3742 1022.86 20.4242 1027.34 18.2542 1031.5C17.6342 1032.68 16.9842 1033.85 16.3342 1035.01C15.4342 1036.59 14.0742 1037.89 13.3842 1039.6C12.6542 1041.43 13.7142 1042.92 15.2642 1043.86C16.0042 1044.31 16.8142 1044.64 17.6142 1044.94C19.4742 1045.64 22.2842 1046.22 23.9542 1044.79C25.5942 1043.39 25.4442 1040.99 25.8442 1039.06C26.3042 1036.88 27.1442 1034.8 28.0242 1032.76C29.5142 1029.3 31.5842 1026.03 34.5342 1023.65C36.4242 1022.13 38.8642 1021.23 41.3042 1021.33C44.0442 1021.45 45.5442 1023.42 46.7842 1025.63C47.1742 1026.35 47.5742 1027.01 48.0042 1027.64C51.7142 1035.24 62.4242 1038.65 77.5042 1039.08C84.4442 1039.27 90.9242 1038.35 96.7042 1037.5C111.434 1035.34 124.524 1030.54 125.304 1026.74C126.444 1021.21 112.144 1012.39 105.114 1009.6V1009.6Z" fill="#496483" fill-opacity="0.17"/>
<path d="M46.5042 980.24C47.5042 973.13 52.6442 963.5 65.7842 952.34C67.6642 950.74 69.7142 949.31 71.7742 947.96C73.1642 947.06 74.5742 946.2 76.0142 945.41C76.7542 945 77.5742 944.36 78.4442 944.09C80.9842 943.3 78.2542 946.51 77.7842 947.07C71.4442 954.77 64.4742 961.92 59.1242 970.4C57.6142 972.79 56.2442 975.27 55.1142 977.85C53.6742 981.1 52.5842 984.48 51.3642 987.82C50.9542 988.92 50.5842 990.77 49.6442 991.57C47.3242 993.51 46.3142 988.21 46.2242 986.98C46.0542 984.79 46.1942 982.41 46.5042 980.24V980.24ZM9.15423 938.27C8.42423 939.99 8.07423 942 7.63423 943.6C6.10423 949.21 5.23423 955 4.95423 960.81C4.76423 964.63 4.78423 968.47 5.06423 972.28C5.12423 973.14 5.74423 981.65 6.93423 981.17C7.85423 980.8 7.32423 977.95 7.32423 977.15C7.24423 967.13 9.26423 957.18 11.7442 947.48C12.4242 944.82 12.9942 942.15 12.8942 939.39C12.8542 938.43 12.8142 936.79 12.1542 936.03C10.9042 934.6 9.61423 937.19 9.15423 938.27V938.27ZM54.1842 1017.73C53.4542 1015.92 59.1342 1012.47 60.2742 1011.82C63.6442 1009.91 67.4542 1008.98 71.2942 1008.5C77.5742 1007.72 82.0442 1008.69 82.9642 1008.82C88.1142 1009.56 86.6242 1010.47 83.4942 1011.03C82.0242 1011.29 68.8842 1013.22 57.4442 1017.3C56.9142 1017.49 54.4542 1018.4 54.1842 1017.73Z" fill="#9DB1C8" fill-opacity="0.17"/>
<path d="M1143.6 970.169C1138.64 982.679 1136.95 995.909 1138.5 1008.71C1139.06 1013.24 1140.35 1017.13 1142.04 1020.25C1142.27 1020.77 1142.53 1021.27 1142.77 1021.71C1144.53 1025.04 1147.07 1027.92 1148.38 1031.51C1149.52 1034.63 1149.78 1038.03 1151.25 1041.02C1151.43 1041.39 1151.53 1041.92 1150.96 1042.05C1150.44 1042.17 1146.28 1039.19 1145.85 1038.9C1144.87 1038.22 1143.91 1037.53 1142.95 1036.81C1139.02 1033.86 1135.19 1030.15 1135.17 1025.69C1135.16 1024.95 1135.35 1023.12 1135.34 1022.39L1135.34 1020.29L1135.33 1020.26C1135.15 1011.13 1129.71 999.289 1121.78 988.689C1114.11 978.439 1100.06 966.859 1089.67 959.019C1078.63 950.689 1070.48 947.399 1067.64 948.089C1063.95 948.959 1064.81 959.019 1064.81 959.019C1064.81 959.019 1064.81 961.279 1065.16 965.009C1066.32 977.419 1071.33 1006.22 1092.97 1023.37C1103.72 1031.9 1114.78 1035.75 1122.9 1034.92L1122.94 1034.92C1125.1 1034.71 1126.54 1034.45 1127.22 1034.45C1131.83 1034.47 1135.22 1037.21 1138.73 1040.14C1140.14 1041.32 1141.82 1042.63 1144.63 1044.74C1145.37 1045.29 1146.63 1046.07 1146.55 1046.46C1146.43 1047.05 1144.94 1047.45 1142.11 1047.02C1141.12 1046.87 1139.65 1046.67 1137.94 1045.61C1135.34 1044 1133.35 1042.71 1132.33 1042.23C1132.2 1042.16 1132.12 1042.15 1132 1042.11C1128.59 1040.36 1124.25 1039.16 1119.17 1038.95C1106.3 1038.44 1093.26 1041.26 1081.19 1047.32C1074.41 1050.72 1061.99 1058.5 1062 1064.23C1062 1068.17 1076.86 1073.88 1091.7 1074.84C1097.5 1075.21 1104.02 1075.62 1110.92 1074.84C1127.37 1073 1138.31 1067.95 1140.14 1058.38C1140.14 1058.35 1140.17 1058.35 1140.17 1058.35C1140.72 1055.38 1142.86 1053.77 1145.44 1052.97C1147.61 1052.29 1149.9 1052.17 1152.15 1052.41C1156.86 1052.91 1161.34 1054.86 1165.5 1057.03C1166.68 1057.65 1167.85 1058.3 1169.01 1058.95C1170.59 1059.85 1171.89 1061.21 1173.6 1061.9C1175.43 1062.63 1176.92 1061.57 1177.86 1060.02C1178.31 1059.28 1178.64 1058.47 1178.94 1057.67C1179.64 1055.81 1180.22 1053 1178.79 1051.33C1177.39 1049.69 1174.99 1049.84 1173.06 1049.44C1170.88 1048.98 1168.8 1048.14 1166.76 1047.26C1163.3 1045.77 1160.03 1043.7 1157.65 1040.75C1156.13 1038.86 1155.23 1036.42 1155.33 1033.98C1155.45 1031.24 1157.42 1029.74 1159.63 1028.5C1160.35 1028.11 1161.01 1027.71 1161.64 1027.28C1169.24 1023.57 1172.65 1012.86 1173.08 997.779C1173.27 990.839 1172.35 984.359 1171.5 978.579C1169.34 963.849 1164.54 950.759 1160.74 949.979C1155.21 948.839 1146.39 963.139 1143.6 970.169V970.169Z" fill="#496483" fill-opacity="0.17"/>
<path d="M1114.24 1028.78C1107.13 1027.78 1097.5 1022.64 1086.34 1009.5C1084.74 1007.62 1083.31 1005.57 1081.96 1003.51C1081.06 1002.12 1080.2 1000.71 1079.41 999.269C1079 998.529 1078.36 997.709 1078.09 996.839C1077.3 994.299 1080.51 997.029 1081.07 997.499C1088.77 1003.84 1095.92 1010.81 1104.4 1016.16C1106.79 1017.67 1109.27 1019.04 1111.85 1020.17C1115.1 1021.61 1118.48 1022.7 1121.82 1023.92C1122.92 1024.33 1124.77 1024.7 1125.57 1025.64C1127.51 1027.96 1122.21 1028.97 1120.98 1029.06C1118.79 1029.23 1116.41 1029.09 1114.24 1028.78V1028.78ZM1072.27 1066.13C1073.99 1066.86 1076 1067.21 1077.6 1067.65C1083.21 1069.18 1089 1070.05 1094.81 1070.33C1098.63 1070.52 1102.47 1070.5 1106.28 1070.22C1107.14 1070.16 1115.65 1069.54 1115.17 1068.35C1114.8 1067.43 1111.95 1067.96 1111.15 1067.96C1101.13 1068.04 1091.18 1066.02 1081.48 1063.54C1078.82 1062.86 1076.15 1062.29 1073.39 1062.39C1072.43 1062.43 1070.79 1062.47 1070.03 1063.13C1068.6 1064.38 1071.19 1065.67 1072.27 1066.13V1066.13ZM1151.73 1021.1C1149.92 1021.83 1146.47 1016.15 1145.82 1015.01C1143.91 1011.64 1142.98 1007.83 1142.5 1003.99C1141.72 997.709 1142.69 993.239 1142.82 992.319C1143.56 987.169 1144.47 988.659 1145.03 991.789C1145.29 993.259 1147.22 1006.4 1151.3 1017.84C1151.49 1018.37 1152.4 1020.83 1151.73 1021.1Z" fill="#9DB1C8" fill-opacity="0.17"/>
<path d="M691.985 963.65C691.746 894.148 632.708 835.236 563.061 835.015L558.766 835L557.734 839.171L517.177 1003.19L515 1012L523.806 1009.81L687.841 968.974L692 967.936L691.985 963.65ZM610.022 982.712C607.521 976.013 601.886 970.376 593.417 972.523C586.422 974.293 581.708 982.438 583.588 989.291L522.487 1004.5L558.141 860.299C613.63 868.719 658.24 913.317 666.677 968.608L610.022 982.712" fill="#496483" fill-opacity="0.17"/>
<path d="M553.126 948.876C555.356 948.884 557.565 948.45 559.626 947.6C561.688 946.749 563.56 945.499 565.135 943.92C566.713 942.349 567.964 940.481 568.816 938.424C569.668 936.366 570.104 934.161 570.1 931.934C570.104 929.709 569.667 927.505 568.815 925.449C567.963 923.394 566.712 921.527 565.135 919.957C563.864 918.692 561.631 918.686 560.365 919.957C559.736 920.589 559.382 921.445 559.383 922.337C559.383 923.229 559.738 924.085 560.368 924.716C562.294 926.636 563.359 929.209 563.359 931.937C563.359 934.666 562.303 937.236 560.374 939.156C556.504 943.009 549.748 943.009 545.892 939.162C545.252 938.545 544.398 938.2 543.509 938.2C542.62 938.2 541.765 938.545 541.125 939.162C540.813 939.474 540.565 939.844 540.396 940.252C540.228 940.66 540.141 941.097 540.141 941.539C540.141 941.98 540.229 942.417 540.398 942.825C540.567 943.233 540.816 943.603 541.128 943.914C542.701 945.493 544.571 946.745 546.63 947.597C548.69 948.448 550.897 948.883 553.126 948.876M602.087 903.387C601.591 905.482 601.578 907.662 602.049 909.762C602.651 912.428 603.99 914.871 605.914 916.813C607.837 918.754 610.268 920.116 612.928 920.742C613.717 920.923 614.545 920.784 615.231 920.356C615.918 919.928 616.407 919.246 616.592 918.459C616.749 917.673 616.6 916.857 616.175 916.179C615.75 915.5 615.081 915.009 614.306 914.807C609.966 913.801 607.005 909.14 608.031 904.762C608.537 902.598 609.881 900.723 611.769 899.55C613.656 898.377 615.932 898.001 618.097 898.505C618.89 898.688 619.713 898.555 620.401 898.122C621.091 897.691 621.578 897.015 621.755 896.219C621.858 895.776 621.864 895.319 621.766 894.874C621.639 894.314 621.357 893.801 620.953 893.394C620.549 892.986 620.039 892.699 619.48 892.567C617.626 892.13 615.704 892.067 613.826 892.381C611.948 892.694 610.15 893.378 608.539 894.393C606.92 895.389 605.516 896.697 604.408 898.241C603.3 899.785 602.511 901.535 602.087 903.387M628.997 955.239C627.026 954.705 624.96 954.621 622.952 954.995C620.409 955.468 618.051 956.646 616.146 958.396C614.241 960.145 612.866 962.395 612.179 964.889C612.081 965.255 612.057 965.636 612.106 966.011C612.156 966.386 612.279 966.748 612.469 967.076C612.658 967.403 612.911 967.69 613.211 967.921C613.512 968.151 613.855 968.319 614.22 968.417C614.958 968.596 615.737 968.485 616.396 968.107C617.055 967.729 617.543 967.112 617.76 966.385C618.861 962.325 623.377 959.694 627.484 960.809C628.491 961.077 629.436 961.542 630.262 962.177C631.088 962.813 631.78 963.606 632.298 964.511C633.351 966.346 633.634 968.479 633.083 970.517C632.954 970.988 632.948 971.484 633.064 971.959C633.18 972.433 633.415 972.87 633.747 973.228C634.079 973.586 634.496 973.854 634.96 974.006C635.424 974.159 635.919 974.191 636.398 974.099C636.934 973.999 637.431 973.751 637.833 973.383C638.234 973.015 638.524 972.541 638.67 972.016C639.142 970.281 639.265 968.47 639.033 966.687C638.8 964.904 638.217 963.185 637.316 961.629C636.419 960.068 635.222 958.7 633.794 957.604C632.367 956.507 630.736 955.704 628.997 955.239M617.808 933.967C613.981 922.769 601.698 916.736 590.337 920.491C578.983 924.253 572.864 936.386 576.679 947.572C580.496 958.788 592.786 964.809 604.155 961.048C615.492 957.296 621.61 945.162 617.808 933.967M627.1 944.227C629.392 950.95 636.779 954.576 643.62 952.316C650.435 950.05 654.101 942.77 651.824 936.041C649.526 929.318 642.133 925.692 635.322 927.94C628.495 930.206 624.82 937.489 627.1 944.227M562.008 898.119C565.141 907.284 575.195 912.214 584.487 909.131C593.759 906.057 598.768 896.13 595.656 886.976C592.52 877.828 582.475 872.899 573.183 875.97C563.914 879.038 558.905 888.965 562.008 898.119ZM569.897 963.567C566.663 954.139 556.309 949.056 546.745 952.204C537.205 955.381 532.051 965.591 535.252 975.013C538.458 984.471 548.804 989.536 558.395 986.368C567.941 983.197 573.091 972.987 569.897 963.567Z" fill="#496483" fill-opacity="0.17"/>
<path d="M65.3505 320.985C134.852 320.746 193.764 261.708 193.985 192.061L194 187.766L189.829 186.734L25.8087 146.177L17 144L19.1948 152.806L60.0257 316.84L61.0641 321L65.3505 320.985ZM46.2876 239.022C52.987 236.521 58.6245 230.886 56.4769 222.417C54.7069 215.422 46.562 210.708 39.7091 212.587L24.4989 151.487L168.701 187.141C160.281 242.63 115.683 287.24 60.3915 295.677L46.2876 239.022" fill="#496483" fill-opacity="0.17"/>
<path d="M80.124 182.126C80.116 184.356 80.5499 186.565 81.4005 188.626C82.2512 190.688 83.5017 192.56 85.08 194.135C86.6514 195.713 88.5196 196.963 90.5767 197.816C92.6338 198.668 94.8392 199.104 97.0658 199.1C99.2911 199.104 101.495 198.667 103.551 197.815C105.606 196.963 107.473 195.712 109.043 194.135C110.308 192.864 110.314 190.631 109.043 189.365C108.411 188.735 107.555 188.382 106.663 188.383C105.771 188.383 104.916 188.738 104.284 189.368C102.364 191.294 99.7916 192.359 97.0629 192.359C94.3341 192.359 91.7647 191.303 89.8442 189.374C85.9915 185.503 85.9915 178.748 89.8383 174.892C90.4555 174.252 90.8004 173.398 90.8004 172.509C90.8004 171.62 90.4555 170.765 89.8383 170.125C89.5263 169.813 89.1558 169.565 88.7479 169.396C88.3401 169.227 87.9029 169.141 87.4615 169.141C87.0201 169.141 86.583 169.229 86.1754 169.398C85.7677 169.567 85.3975 169.815 85.0859 170.128C83.5068 171.701 82.2552 173.571 81.4035 175.63C80.5518 177.689 80.1169 179.897 80.124 182.126M125.613 231.087C123.518 230.591 121.338 230.577 119.238 231.049C116.572 231.65 114.129 232.99 112.188 234.913C110.246 236.837 108.885 239.268 108.258 241.928C108.078 242.717 108.216 243.544 108.644 244.231C109.072 244.917 109.754 245.407 110.541 245.592C111.327 245.749 112.143 245.6 112.822 245.175C113.501 244.749 113.991 244.081 114.194 243.306C115.199 238.966 119.86 236.005 124.238 237.031C126.402 237.537 128.277 238.881 129.45 240.769C130.623 242.656 130.999 244.932 130.495 247.097C130.312 247.89 130.445 248.713 130.879 249.4C131.309 250.091 131.985 250.578 132.781 250.755C133.224 250.858 133.681 250.864 134.127 250.766C134.686 250.639 135.199 250.357 135.607 249.953C136.014 249.549 136.301 249.039 136.434 248.48C136.87 246.626 136.933 244.704 136.619 242.826C136.306 240.948 135.622 239.15 134.608 237.539C133.612 235.92 132.303 234.516 130.759 233.408C129.215 232.3 127.465 231.511 125.613 231.087M73.7608 257.997C74.2956 256.026 74.3793 253.96 74.0057 251.952C73.5327 249.409 72.3541 247.051 70.6045 245.146C68.8549 243.241 66.6049 241.866 64.1114 241.179C63.7457 241.081 63.3643 241.057 62.9891 241.106C62.6139 241.156 62.2521 241.279 61.9245 241.469C61.5968 241.658 61.3097 241.911 61.0796 242.211C60.8495 242.512 60.6808 242.855 60.5832 243.22C60.404 243.958 60.515 244.737 60.8932 245.396C61.2714 246.054 61.888 246.543 62.6157 246.76C66.6749 247.861 69.3063 252.377 68.1912 256.483C67.9235 257.491 67.4583 258.435 66.8228 259.262C66.1873 260.088 65.394 260.78 64.489 261.298C62.6541 262.351 60.5212 262.634 58.4828 262.083C58.0117 261.954 57.5158 261.948 57.0416 262.064C56.5674 262.18 56.1306 262.415 55.7724 262.747C55.4141 263.079 55.1462 263.496 54.9938 263.96C54.8415 264.424 54.8097 264.919 54.9015 265.398C55.001 265.934 55.2491 266.431 55.6173 266.833C55.9855 267.234 56.4591 267.524 56.9842 267.67C58.7191 268.142 60.5303 268.265 62.3132 268.033C64.096 267.8 65.8151 267.217 67.3711 266.316C68.9319 265.419 70.2999 264.222 71.3964 262.794C72.493 261.366 73.2966 259.736 73.7608 257.997M95.0333 246.807C106.231 242.981 112.264 230.697 108.509 219.337C104.748 207.982 92.6143 201.864 81.4279 205.679C70.212 209.496 64.191 221.786 67.9523 233.155C71.7047 244.492 83.838 250.61 95.0333 246.807M84.7732 256.1C78.0501 258.392 74.4246 265.779 76.6843 272.62C78.9499 279.434 86.2305 283.101 92.9594 280.824C99.6825 278.526 103.308 271.133 101.06 264.322C98.7945 257.495 91.511 253.82 84.7732 256.1M130.882 191.008C121.716 194.141 116.787 204.195 119.869 213.487C122.943 222.759 132.87 227.768 142.024 224.656C151.172 221.52 156.101 211.475 153.03 202.183C149.962 192.914 140.036 187.905 130.882 191.008ZM65.433 198.896C74.8612 195.663 79.944 185.309 76.7964 175.745C73.6192 166.205 63.4093 161.051 53.987 164.252C44.5293 167.458 39.4641 177.804 42.6324 187.394C45.8037 196.941 56.0136 202.091 65.433 198.896Z" fill="#496483" fill-opacity="0.17"/>
<path d="M1324.27 72.5282C1257.2 90.7475 1215.57 163.022 1233.39 230.352L1234.48 234.505L1238.78 234.423L1407.71 231.146L1416.78 230.969L1412.38 223.031L1330.49 75.1536L1328.41 71.4046L1324.27 72.5282ZM1363.9 146.764C1358.07 150.915 1354.09 157.816 1358.35 165.441C1361.87 171.739 1370.96 174.185 1377.09 170.596L1407.6 225.678L1259.08 228.561C1252.85 172.783 1284.39 118.151 1335.61 95.6904L1363.9 146.764" fill="#496483" fill-opacity="0.17"/>
<path d="M1345.94 210.48C1345.37 208.324 1344.38 206.302 1343.02 204.531C1341.67 202.76 1339.98 201.275 1338.04 200.162C1336.12 199.045 1333.99 198.321 1331.78 198.03C1329.57 197.739 1327.33 197.888 1325.18 198.469C1323.03 199.041 1321.01 200.033 1319.25 201.388C1317.48 202.743 1316.01 204.434 1314.9 206.364C1314 207.92 1314.58 210.078 1316.13 210.972C1316.91 211.416 1317.82 211.536 1318.68 211.305C1319.55 211.073 1320.28 210.51 1320.73 209.737C1322.08 207.38 1324.29 205.685 1326.93 204.979C1329.56 204.273 1332.32 204.628 1334.67 205.994C1339.4 208.736 1341.15 215.261 1338.43 219.981C1338 220.759 1337.89 221.673 1338.12 222.532C1338.35 223.391 1338.9 224.127 1339.66 224.586C1340.04 224.806 1340.47 224.95 1340.9 225.007C1341.34 225.065 1341.79 225.036 1342.21 224.921C1342.64 224.807 1343.04 224.609 1343.39 224.34C1343.74 224.071 1344.03 223.735 1344.25 223.353C1345.37 221.425 1346.09 219.295 1346.38 217.085C1346.67 214.876 1346.52 212.63 1345.94 210.48M1289.33 174.96C1291.48 174.898 1293.59 174.346 1295.5 173.347C1297.92 172.076 1299.93 170.15 1301.31 167.789C1302.68 165.429 1303.37 162.728 1303.29 159.997C1303.26 159.188 1302.91 158.425 1302.32 157.872C1301.73 157.32 1300.94 157.024 1300.13 157.049C1299.33 157.1 1298.58 157.456 1298.04 158.042C1297.49 158.628 1297.19 159.401 1297.2 160.202C1297.35 164.654 1293.61 168.721 1289.12 168.863C1286.9 168.934 1284.74 168.121 1283.12 166.601C1281.49 165.082 1280.54 162.981 1280.47 160.76C1280.44 159.946 1280.1 159.185 1279.5 158.634C1278.91 158.078 1278.13 157.783 1277.31 157.818C1276.86 157.833 1276.42 157.946 1276.01 158.155C1275.5 158.423 1275.08 158.828 1274.79 159.324C1274.5 159.82 1274.36 160.387 1274.37 160.96C1274.43 162.864 1274.87 164.737 1275.66 166.47C1276.45 168.203 1277.57 169.762 1278.97 171.056C1280.35 172.362 1281.98 173.38 1283.76 174.05C1285.53 174.72 1287.43 175.03 1289.33 174.96M1332.45 135.547C1332.44 137.589 1332.9 139.606 1333.78 141.449C1334.89 143.783 1336.64 145.756 1338.82 147.143C1341.01 148.531 1343.54 149.276 1346.12 149.294C1346.5 149.294 1346.88 149.219 1347.22 149.074C1347.57 148.929 1347.89 148.716 1348.16 148.448C1348.43 148.18 1348.64 147.862 1348.78 147.513C1348.93 147.163 1349 146.788 1349 146.409C1348.98 145.65 1348.67 144.927 1348.14 144.388C1347.6 143.85 1346.88 143.538 1346.12 143.516C1341.92 143.504 1338.21 139.822 1338.22 135.567C1338.22 134.525 1338.42 133.492 1338.82 132.529C1339.22 131.567 1339.81 130.693 1340.55 129.959C1342.05 128.466 1344.04 127.641 1346.15 127.646C1346.64 127.648 1347.12 127.526 1347.55 127.291C1347.97 127.056 1348.33 126.716 1348.59 126.303C1348.85 125.89 1349.01 125.417 1349.03 124.93C1349.06 124.442 1348.96 123.956 1348.75 123.516C1348.51 123.025 1348.15 122.609 1347.69 122.316C1347.23 122.024 1346.69 121.866 1346.15 121.861C1344.35 121.855 1342.57 122.204 1340.91 122.89C1339.25 123.576 1337.74 124.585 1336.47 125.858C1335.19 127.128 1334.18 128.638 1333.49 130.301C1332.8 131.964 1332.45 133.747 1332.45 135.547M1314.8 151.861C1304.97 158.455 1302.32 171.881 1308.89 181.883C1315.46 191.877 1328.77 194.647 1338.58 188.067C1348.43 181.477 1351.06 168.048 1344.49 158.039C1337.93 148.06 1324.63 145.29 1314.8 151.861M1322.3 140.229C1328.2 136.275 1329.79 128.202 1325.84 122.179C1321.89 116.183 1313.91 114.525 1308 118.467C1302.1 122.426 1300.51 130.506 1304.44 136.503C1308.4 142.511 1316.38 144.176 1322.3 140.229M1294.61 215.037C1302.65 209.639 1304.81 198.652 1299.43 190.474C1294.06 182.313 1283.18 180.044 1275.14 185.42C1267.12 190.816 1264.95 201.795 1270.33 209.976C1275.69 218.135 1286.57 220.404 1294.61 215.037ZM1355.79 190.478C1347.52 196.041 1345.29 207.359 1350.8 215.782C1356.34 224.175 1367.54 226.51 1375.81 220.98C1384.12 215.435 1386.33 204.131 1380.79 195.687C1375.26 187.287 1364.06 184.954 1355.79 190.478Z" fill="#496483" fill-opacity="0.17"/>
</g>
<defs>
<clipPath id="clip0_51_1300">
<rect width="1440" height="1024" fill="white"/>
</clipPath>
</defs>
</svg>
