<svg width="23" height="26" viewBox="0 0 23 26" fill="none" xmlns="http://www.w3.org/2000/svg">
<path d="M21.3493 20.4578C19.0035 20.4314 16.7294 19.6466 14.8665 18.2209C13.0036 16.7951 11.6521 14.8049 11.0138 12.5475C10.3755 10.2901 10.4847 7.88686 11.3251 5.6967C12.1655 3.50655 13.692 1.6471 15.6765 0.396191C14.6738 0.135521 13.6421 0.00240613 12.6061 0C9.26272 0 6.05632 1.32813 3.69223 3.69223C1.32813 6.05632 0 9.26273 0 12.6061C0 15.9494 1.32813 19.1558 3.69223 21.5199C6.05632 23.884 9.26272 25.2121 12.6061 25.2121C14.5001 25.2104 16.3687 24.7764 18.0695 23.9431C19.7704 23.1099 21.2586 21.8993 22.4208 20.4038C22.0648 20.44 21.7071 20.458 21.3493 20.4578Z" fill="#222222"/>
</svg>
