<svg width="121" height="126" viewBox="0 0 121 126" fill="none" xmlns="http://www.w3.org/2000/svg">
<path d="M96.8 100.8C90.0845 100.8 84.7 106.407 84.7 113.4C84.7 116.742 85.9748 119.947 88.244 122.31C90.5132 124.673 93.5909 126 96.8 126C100.009 126 103.087 124.673 105.356 122.31C107.625 119.947 108.9 116.742 108.9 113.4C108.9 110.058 107.625 106.853 105.356 104.49C103.087 102.128 100.009 100.8 96.8 100.8ZM0 0V12.6H12.1L33.88 60.417L25.652 75.852C24.7445 77.616 24.2 79.695 24.2 81.9C24.2 85.2417 25.4748 88.4466 27.744 90.8095C30.0132 93.1725 33.0909 94.5 36.3 94.5H108.9V81.9H38.841C38.4399 81.9 38.0552 81.7341 37.7715 81.4387C37.4879 81.1433 37.3285 80.7427 37.3285 80.325C37.3285 80.01 37.389 79.758 37.51 79.569L42.955 69.3H88.0275C92.565 69.3 96.558 66.654 98.615 62.811L120.274 22.05C120.697 21.042 121 19.971 121 18.9C121 17.2291 120.363 15.6267 119.228 14.4452C118.093 13.2637 116.555 12.6 114.95 12.6H25.4705L19.7835 0M36.3 100.8C29.5845 100.8 24.2 106.407 24.2 113.4C24.2 116.742 25.4748 119.947 27.744 122.31C30.0132 124.673 33.0909 126 36.3 126C39.5091 126 42.5868 124.673 44.856 122.31C47.1252 119.947 48.4 116.742 48.4 113.4C48.4 110.058 47.1252 106.853 44.856 104.49C42.5868 102.128 39.5091 100.8 36.3 100.8Z" fill="white"/>
</svg>
