<svg width="121" height="125" viewBox="0 0 121 125" fill="none" xmlns="http://www.w3.org/2000/svg">
<path d="M48.1592 112.864C48.1592 119.539 42.7413 125 36.1194 125C29.4975 125 24.0796 119.539 24.0796 112.864C24.0796 106.189 29.4975 100.728 36.1194 100.728C42.7413 100.728 48.1592 106.189 48.1592 112.864ZM96.3184 100.728C89.6965 100.728 84.2786 106.189 84.2786 112.864C84.2786 119.539 89.6965 125 96.3184 125C102.94 125 108.358 119.539 108.358 112.864C108.358 106.189 102.94 100.728 96.3184 100.728ZM37.3234 81.3107V80.7039L42.7413 70.3884H87.2886C91.5025 70.3884 95.7164 67.9612 97.5224 64.3204L121 21.8447L110.766 15.7767L87.2886 58.2524H45.1493L19.8657 3.64078H0V15.7767H12.0398L33.7114 61.8932L25.2836 76.4563C24.6816 78.2767 24.0796 80.0971 24.0796 82.5243C24.0796 89.199 29.4975 94.6602 36.1194 94.6602H108.358V82.5243H38.5274C37.9254 82.5243 37.3234 81.9175 37.3234 81.3107M102.338 8.49515L93.9104 0L65.0149 29.1262L49.3632 13.3495L40.9353 21.8447L65.0149 46.1165L102.338 8.49515Z" fill="white"/>
</svg>
