<svg width="28" height="28" viewBox="0 0 28 28" fill="none" xmlns="http://www.w3.org/2000/svg">
<path d="M14 18.9498C12.6872 18.9498 11.4282 18.4283 10.4999 17.5C9.57157 16.5717 9.05005 15.3126 9.05005 13.9998C9.05005 12.687 9.57157 11.4279 10.4999 10.4996C11.4282 9.57132 12.6872 9.0498 14 9.0498C15.3129 9.0498 16.5719 9.57132 17.5002 10.4996C18.4285 11.4279 18.9501 12.687 18.9501 13.9998C18.9501 15.3126 18.4285 16.5717 17.5002 17.5C16.5719 18.4283 15.3129 18.9498 14 18.9498ZM14 20.5998C15.7505 20.5998 17.4292 19.9045 18.667 18.6667C19.9047 17.429 20.6 15.7502 20.6 13.9998C20.6 12.2494 19.9047 10.5706 18.667 9.3329C17.4292 8.09516 15.7505 7.39981 14 7.39981C12.2496 7.39981 10.5709 8.09516 9.33314 9.3329C8.0954 10.5706 7.40005 12.2494 7.40005 13.9998C7.40005 15.7502 8.0954 17.429 9.33314 18.6667C10.5709 19.9045 12.2496 20.5998 14 20.5998ZM14 0.799805C14.2189 0.799805 14.4287 0.886724 14.5834 1.04144C14.7381 1.19616 14.825 1.406 14.825 1.6248V4.9248C14.825 5.14361 14.7381 5.35345 14.5834 5.50817C14.4287 5.66289 14.2189 5.7498 14 5.7498C13.7812 5.7498 13.5714 5.66289 13.4167 5.50817C13.262 5.35345 13.175 5.14361 13.175 4.9248V1.6248C13.175 1.406 13.262 1.19616 13.4167 1.04144C13.5714 0.886724 13.7812 0.799805 14 0.799805ZM14 22.2498C14.2189 22.2498 14.4287 22.3367 14.5834 22.4914C14.7381 22.6462 14.825 22.856 14.825 23.0748V26.3748C14.825 26.5936 14.7381 26.8035 14.5834 26.9582C14.4287 27.1129 14.2189 27.1998 14 27.1998C13.7812 27.1998 13.5714 27.1129 13.4167 26.9582C13.262 26.8035 13.175 26.5936 13.175 26.3748V23.0748C13.175 22.856 13.262 22.6462 13.4167 22.4914C13.5714 22.3367 13.7812 22.2498 14 22.2498ZM27.2001 13.9998C27.2001 14.2186 27.1131 14.4285 26.9584 14.5832C26.8037 14.7379 26.5939 14.8248 26.375 14.8248H23.0751C22.8562 14.8248 22.6464 14.7379 22.4917 14.5832C22.337 14.4285 22.25 14.2186 22.25 13.9998C22.25 13.781 22.337 13.5712 22.4917 13.4164C22.6464 13.2617 22.8562 13.1748 23.0751 13.1748H26.375C26.5939 13.1748 26.8037 13.2617 26.9584 13.4164C27.1131 13.5712 27.2001 13.781 27.2001 13.9998ZM5.75005 13.9998C5.75005 14.2186 5.66313 14.4285 5.50841 14.5832C5.35369 14.7379 5.14385 14.8248 4.92505 14.8248H1.62505C1.40625 14.8248 1.1964 14.7379 1.04169 14.5832C0.886968 14.4285 0.800049 14.2186 0.800049 13.9998C0.800049 13.781 0.886968 13.5712 1.04169 13.4164C1.1964 13.2617 1.40625 13.1748 1.62505 13.1748H4.92505C5.14385 13.1748 5.35369 13.2617 5.50841 13.4164C5.66313 13.5712 5.75005 13.781 5.75005 13.9998ZM23.3341 4.66575C23.4888 4.82047 23.5756 5.03027 23.5756 5.24903C23.5756 5.46779 23.4888 5.67759 23.3341 5.8323L21.001 8.16706C20.9243 8.24365 20.8333 8.30439 20.7331 8.3458C20.6329 8.38722 20.5255 8.40849 20.4171 8.40841C20.1982 8.40826 19.9883 8.32114 19.8336 8.16623C19.757 8.08953 19.6963 7.99848 19.6549 7.89831C19.6135 7.79813 19.5922 7.69077 19.5923 7.58237C19.5924 7.36345 19.6795 7.15355 19.8344 6.99886L22.1675 4.66575C22.3223 4.51109 22.5321 4.42421 22.7508 4.42421C22.9696 4.42421 23.1794 4.51109 23.3341 4.66575ZM8.16565 19.8342C8.32031 19.9889 8.4072 20.1987 8.4072 20.4175C8.4072 20.6362 8.32031 20.846 8.16565 21.0008L5.83255 23.3339C5.67695 23.4841 5.46856 23.5673 5.25224 23.5654C5.03593 23.5635 4.82901 23.4768 4.67605 23.3238C4.52309 23.1708 4.43632 22.9639 4.43444 22.7476C4.43256 22.5313 4.51572 22.3229 4.666 22.1673L6.9991 19.8342C7.15381 19.6795 7.36361 19.5927 7.58237 19.5927C7.80113 19.5927 8.01094 19.6795 8.16565 19.8342ZM23.3341 23.3339C23.1794 23.4885 22.9696 23.5754 22.7508 23.5754C22.5321 23.5754 22.3223 23.4885 22.1675 23.3339L19.8344 21.0008C19.6842 20.8452 19.601 20.6368 19.6029 20.4205C19.6048 20.2041 19.6915 19.9972 19.8445 19.8443C19.9975 19.6913 20.2044 19.6045 20.4207 19.6026C20.637 19.6008 20.8454 19.6839 21.001 19.8342L23.3341 22.1673C23.4888 22.322 23.5756 22.5318 23.5756 22.7506C23.5756 22.9693 23.4888 23.1791 23.3341 23.3339ZM8.16565 8.16706C8.01094 8.32172 7.80113 8.4086 7.58237 8.4086C7.36361 8.4086 7.15381 8.32172 6.9991 8.16706L4.666 5.8323C4.5872 5.7562 4.52435 5.66517 4.48112 5.56451C4.43788 5.46386 4.41512 5.3556 4.41417 5.24606C4.41322 5.13652 4.43409 5.02788 4.47557 4.92649C4.51705 4.8251 4.57831 4.73299 4.65577 4.65553C4.73323 4.57807 4.82535 4.51681 4.92674 4.47533C5.02813 4.43385 5.13676 4.41297 5.2463 4.41392C5.35585 4.41488 5.4641 4.43763 5.56476 4.48087C5.66541 4.52411 5.75645 4.58696 5.83255 4.66575L8.16565 6.99886C8.24248 7.07549 8.30343 7.16653 8.34502 7.26676C8.38662 7.36699 8.40802 7.47444 8.40802 7.58296C8.40802 7.69147 8.38662 7.79892 8.34502 7.89915C8.30343 7.99938 8.24248 8.09042 8.16565 8.16706Z" fill="#F0EEE9"/>
</svg>
