<svg width="1440" height="1024" viewBox="0 0 1440 1024" fill="none" xmlns="http://www.w3.org/2000/svg">
<g clip-path="url(#clip0_50_1175)">
<rect width="1440" height="1024" fill="#F0EEE9"/>
<path d="M443 151H611C614.713 151 618.274 152.475 620.899 155.101C623.525 157.726 625 161.287 625 165C625 168.713 623.525 172.274 620.899 174.899C618.274 177.525 614.713 179 611 179H443C439.287 179 435.726 177.525 433.101 174.899C430.475 172.274 429 168.713 429 165C429 161.287 430.475 157.726 433.101 155.101C435.726 152.475 439.287 151 443 151ZM653 109V137H401V109H653ZM569 193H597V389H569V193ZM457 193H485V389H457V193ZM513 193H541V389H513V193Z" fill="#496483" fill-opacity="0.17"/>
<path d="M1267.37 970.373L1412.87 886.373C1416.08 884.517 1419.9 884.013 1423.49 884.974C1427.08 885.935 1430.13 888.282 1431.99 891.497C1433.85 894.713 1434.35 898.534 1433.39 902.121C1432.43 905.707 1430.08 908.765 1426.87 910.622L1281.37 994.622C1278.16 996.478 1274.34 996.981 1270.75 996.02C1267.16 995.059 1264.11 992.713 1262.25 989.497C1260.39 986.282 1259.89 982.46 1260.85 978.874C1261.81 975.287 1264.16 972.23 1267.37 970.373ZM1428.24 829L1442.24 853.249L1224 979.249L1210 955L1428.24 829ZM1397.49 943.746L1421.74 929.746L1519.74 1099.49L1495.49 1113.49L1397.49 943.746ZM1300.5 999.746L1324.75 985.746L1422.75 1155.49L1398.5 1169.49L1300.5 999.746ZM1348.99 971.746L1373.24 957.746L1471.24 1127.49L1446.99 1141.49L1348.99 971.746Z" fill="#496483" fill-opacity="0.17"/>
<path d="M697.985 975.65C697.746 906.148 638.708 847.236 569.061 847.015L564.766 847L563.734 851.171L523.177 1015.19L521 1024L529.806 1021.81L693.841 980.974L698 979.936L697.985 975.65ZM616.022 994.712C613.521 988.013 607.886 982.376 599.417 984.523C592.422 986.293 587.708 994.438 589.588 1001.29L528.487 1016.5L564.141 872.299C619.63 880.719 664.24 925.317 672.677 980.608L616.022 994.712" fill="#496483" fill-opacity="0.17"/>
<path d="M559.126 960.876C561.356 960.884 563.565 960.45 565.626 959.599C567.688 958.749 569.56 957.498 571.135 955.92C572.713 954.349 573.964 952.48 574.816 950.423C575.668 948.366 576.104 946.161 576.1 943.934C576.104 941.709 575.667 939.505 574.815 937.449C573.963 935.394 572.712 933.527 571.135 931.957C569.864 930.692 567.631 930.686 566.365 931.957C565.736 932.589 565.382 933.445 565.383 934.337C565.383 935.229 565.738 936.084 566.368 936.716C568.294 938.636 569.359 941.208 569.359 943.937C569.359 946.666 568.303 949.235 566.374 951.156C562.504 955.008 555.748 955.008 551.892 951.162C551.252 950.544 550.398 950.2 549.509 950.2C548.62 950.2 547.765 950.544 547.125 951.162C546.813 951.474 546.565 951.844 546.396 952.252C546.228 952.66 546.141 953.097 546.141 953.539C546.141 953.98 546.229 954.417 546.398 954.825C546.567 955.232 546.816 955.602 547.128 955.914C548.701 957.493 550.571 958.745 552.63 959.597C554.69 960.448 556.897 960.883 559.126 960.876M608.087 915.387C607.591 917.482 607.578 919.662 608.049 921.762C608.651 924.428 609.99 926.871 611.914 928.812C613.837 930.754 616.268 932.115 618.928 932.742C619.717 932.922 620.545 932.784 621.231 932.356C621.918 931.928 622.407 931.246 622.592 930.459C622.749 929.673 622.6 928.857 622.175 928.178C621.75 927.499 621.081 927.009 620.306 926.806C615.966 925.801 613.005 921.14 614.031 916.762C614.537 914.598 615.881 912.723 617.769 911.55C619.656 910.377 621.932 910.001 624.097 910.505C624.89 910.688 625.713 910.555 626.401 910.121C627.091 909.691 627.578 909.015 627.755 908.219C627.858 907.776 627.864 907.319 627.766 906.873C627.639 906.314 627.357 905.801 626.953 905.393C626.549 904.986 626.039 904.699 625.48 904.566C623.626 904.13 621.704 904.067 619.826 904.381C617.948 904.694 616.15 905.378 614.539 906.392C612.92 907.388 611.516 908.697 610.408 910.241C609.3 911.785 608.511 913.535 608.087 915.387M634.997 967.239C633.026 966.704 630.96 966.621 628.952 966.994C626.409 967.467 624.051 968.646 622.146 970.395C620.241 972.145 618.866 974.395 618.179 976.889C618.081 977.254 618.057 977.636 618.106 978.011C618.156 978.386 618.279 978.748 618.469 979.076C618.658 979.403 618.911 979.69 619.211 979.92C619.512 980.151 619.855 980.319 620.22 980.417C620.958 980.596 621.737 980.485 622.396 980.107C623.055 979.729 623.543 979.112 623.76 978.384C624.861 974.325 629.377 971.694 633.484 972.809C634.491 973.077 635.436 973.542 636.262 974.177C637.088 974.813 637.78 975.606 638.298 976.511C639.351 978.346 639.634 980.479 639.083 982.517C638.954 982.988 638.948 983.484 639.064 983.958C639.18 984.433 639.415 984.869 639.747 985.228C640.079 985.586 640.496 985.854 640.96 986.006C641.424 986.159 641.919 986.19 642.398 986.099C642.934 985.999 643.431 985.751 643.833 985.383C644.234 985.014 644.524 984.541 644.67 984.016C645.142 982.281 645.265 980.47 645.033 978.687C644.8 976.904 644.217 975.185 643.316 973.629C642.419 972.068 641.222 970.7 639.794 969.604C638.367 968.507 636.736 967.703 634.997 967.239M623.808 945.967C619.981 934.769 607.698 928.736 596.337 932.491C584.983 936.252 578.864 948.386 582.679 959.572C586.496 970.788 598.786 976.809 610.155 973.048C621.492 969.295 627.61 957.162 623.808 945.967M633.1 956.227C635.392 962.95 642.779 966.575 649.62 964.316C656.435 962.05 660.101 954.77 657.824 948.041C655.526 941.318 648.133 937.692 641.322 939.94C634.495 942.205 630.82 949.489 633.1 956.227M568.008 910.118C571.141 919.284 581.195 924.213 590.487 921.131C599.759 918.057 604.768 908.13 601.656 898.976C598.52 889.828 588.475 884.899 579.183 887.97C569.914 891.038 564.905 900.964 568.008 910.118ZM575.897 975.567C572.663 966.139 562.309 961.056 552.745 964.204C543.205 967.381 538.051 977.591 541.252 987.013C544.458 996.471 554.804 1001.54 564.395 998.368C573.941 995.196 579.091 984.986 575.897 975.567Z" fill="#496483" fill-opacity="0.17"/>
<path d="M65.3505 313.985C134.852 313.746 193.764 254.708 193.985 185.061L194 180.766L189.829 179.734L25.8087 139.177L17 137L19.1948 145.806L60.0257 309.84L61.0641 314L65.3505 313.985ZM46.2876 232.022C52.987 229.521 58.6245 223.886 56.4769 215.417C54.7069 208.422 46.562 203.708 39.7091 205.587L24.4989 144.487L168.701 180.141C160.281 235.63 115.683 280.24 60.3915 288.677L46.2876 232.022" fill="#496483" fill-opacity="0.17"/>
<path d="M80.124 175.126C80.116 177.356 80.5499 179.565 81.4005 181.626C82.2512 183.688 83.5017 185.56 85.08 187.135C86.6514 188.713 88.5196 189.963 90.5767 190.816C92.6338 191.668 94.8392 192.104 97.0658 192.1C99.2911 192.104 101.495 191.667 103.551 190.815C105.606 189.963 107.473 188.712 109.043 187.135C110.308 185.864 110.314 183.631 109.043 182.365C108.411 181.735 107.555 181.382 106.663 181.383C105.771 181.383 104.916 181.738 104.284 182.368C102.364 184.294 99.7916 185.359 97.0629 185.359C94.3341 185.359 91.7647 184.303 89.8442 182.374C85.9915 178.503 85.9915 171.748 89.8383 167.892C90.4555 167.252 90.8004 166.398 90.8004 165.509C90.8004 164.62 90.4555 163.765 89.8383 163.125C89.5263 162.813 89.1558 162.565 88.7479 162.396C88.3401 162.227 87.9029 162.141 87.4615 162.141C87.0201 162.141 86.583 162.229 86.1754 162.398C85.7677 162.567 85.3975 162.815 85.0859 163.128C83.5068 164.701 82.2552 166.571 81.4035 168.63C80.5518 170.689 80.1169 172.897 80.124 175.126M125.613 224.087C123.518 223.591 121.338 223.577 119.238 224.049C116.572 224.65 114.129 225.99 112.188 227.913C110.246 229.837 108.885 232.268 108.258 234.928C108.078 235.717 108.216 236.544 108.644 237.231C109.072 237.917 109.754 238.407 110.541 238.592C111.327 238.749 112.143 238.6 112.822 238.175C113.501 237.749 113.991 237.081 114.194 236.306C115.199 231.966 119.86 229.005 124.238 230.031C126.402 230.537 128.277 231.881 129.45 233.769C130.623 235.656 130.999 237.932 130.495 240.097C130.312 240.89 130.445 241.713 130.879 242.4C131.309 243.091 131.985 243.578 132.781 243.755C133.224 243.858 133.681 243.864 134.127 243.766C134.686 243.639 135.199 243.357 135.607 242.953C136.014 242.549 136.301 242.039 136.434 241.48C136.87 239.626 136.933 237.704 136.619 235.826C136.306 233.948 135.622 232.15 134.608 230.539C133.612 228.92 132.303 227.516 130.759 226.408C129.215 225.3 127.465 224.511 125.613 224.087M73.7608 250.997C74.2956 249.026 74.3793 246.96 74.0057 244.952C73.5327 242.409 72.3541 240.051 70.6045 238.146C68.8549 236.241 66.6049 234.866 64.1114 234.179C63.7457 234.081 63.3643 234.057 62.9891 234.106C62.6139 234.156 62.2521 234.279 61.9245 234.469C61.5968 234.658 61.3097 234.911 61.0796 235.211C60.8495 235.512 60.6808 235.855 60.5832 236.22C60.404 236.958 60.515 237.737 60.8932 238.396C61.2714 239.054 61.888 239.543 62.6157 239.76C66.6749 240.861 69.3063 245.377 68.1912 249.483C67.9235 250.491 67.4583 251.435 66.8228 252.262C66.1873 253.088 65.394 253.78 64.489 254.298C62.6541 255.351 60.5212 255.634 58.4828 255.083C58.0117 254.954 57.5158 254.948 57.0416 255.064C56.5674 255.18 56.1306 255.415 55.7724 255.747C55.4141 256.079 55.1462 256.496 54.9938 256.96C54.8415 257.424 54.8097 257.919 54.9015 258.398C55.001 258.934 55.2491 259.431 55.6173 259.833C55.9855 260.234 56.4591 260.524 56.9842 260.67C58.7191 261.142 60.5303 261.265 62.3132 261.033C64.096 260.8 65.8151 260.217 67.3711 259.316C68.9319 258.419 70.2999 257.222 71.3964 255.794C72.493 254.366 73.2966 252.736 73.7608 250.997M95.0333 239.807C106.231 235.981 112.264 223.697 108.509 212.337C104.748 200.982 92.6143 194.864 81.4279 198.679C70.212 202.496 64.191 214.786 67.9523 226.155C71.7047 237.492 83.838 243.61 95.0333 239.807M84.7732 249.1C78.0501 251.392 74.4246 258.779 76.6843 265.62C78.9499 272.434 86.2305 276.101 92.9594 273.824C99.6825 271.526 103.308 264.133 101.06 257.322C98.7945 250.495 91.511 246.82 84.7732 249.1M130.882 184.008C121.716 187.141 116.787 197.195 119.869 206.487C122.943 215.759 132.87 220.768 142.024 217.656C151.172 214.52 156.101 204.475 153.03 195.183C149.962 185.914 140.036 180.905 130.882 184.008ZM65.433 191.896C74.8612 188.663 79.944 178.309 76.7964 168.745C73.6192 159.205 63.4093 154.051 53.987 157.252C44.5293 160.458 39.4641 170.804 42.6324 180.394C45.8037 189.941 56.0136 195.091 65.433 191.896Z" fill="#496483" fill-opacity="0.17"/>
<path d="M1324.27 53.5282C1257.2 71.7475 1215.57 144.022 1233.39 211.352L1234.48 215.505L1238.78 215.423L1407.71 212.146L1416.78 211.969L1412.38 204.031L1330.49 56.1536L1328.41 52.4046L1324.27 53.5282ZM1363.9 127.764C1358.07 131.915 1354.09 138.816 1358.35 146.441C1361.87 152.739 1370.96 155.185 1377.09 151.596L1407.6 206.678L1259.08 209.561C1252.85 153.783 1284.39 99.1505 1335.61 76.6904L1363.9 127.764" fill="#496483" fill-opacity="0.17"/>
<path d="M1345.94 191.48C1345.37 189.324 1344.38 187.302 1343.02 185.531C1341.67 183.76 1339.98 182.275 1338.04 181.162C1336.12 180.045 1333.99 179.321 1331.78 179.03C1329.57 178.739 1327.33 178.888 1325.18 179.469C1323.03 180.041 1321.01 181.033 1319.25 182.388C1317.48 183.743 1316.01 185.434 1314.9 187.364C1314 188.92 1314.58 191.078 1316.13 191.972C1316.91 192.416 1317.82 192.536 1318.68 192.305C1319.55 192.073 1320.28 191.51 1320.73 190.737C1322.08 188.38 1324.29 186.685 1326.93 185.979C1329.56 185.273 1332.32 185.628 1334.67 186.994C1339.4 189.736 1341.15 196.261 1338.43 200.981C1338 201.759 1337.89 202.673 1338.12 203.532C1338.35 204.391 1338.9 205.127 1339.66 205.586C1340.04 205.806 1340.47 205.95 1340.9 206.007C1341.34 206.065 1341.79 206.036 1342.21 205.921C1342.64 205.807 1343.04 205.609 1343.39 205.34C1343.74 205.071 1344.03 204.735 1344.25 204.353C1345.37 202.425 1346.09 200.295 1346.38 198.085C1346.67 195.876 1346.52 193.63 1345.94 191.48M1289.33 155.96C1291.48 155.898 1293.59 155.346 1295.5 154.347C1297.92 153.076 1299.93 151.15 1301.31 148.789C1302.68 146.429 1303.37 143.728 1303.29 140.997C1303.26 140.188 1302.91 139.425 1302.32 138.872C1301.73 138.32 1300.94 138.024 1300.13 138.049C1299.33 138.1 1298.58 138.456 1298.04 139.042C1297.49 139.628 1297.19 140.401 1297.2 141.202C1297.35 145.654 1293.61 149.721 1289.12 149.863C1286.9 149.934 1284.74 149.121 1283.12 147.601C1281.49 146.082 1280.54 143.981 1280.47 141.76C1280.44 140.946 1280.1 140.185 1279.5 139.634C1278.91 139.078 1278.13 138.783 1277.31 138.818C1276.86 138.833 1276.42 138.946 1276.01 139.155C1275.5 139.423 1275.08 139.828 1274.79 140.324C1274.5 140.82 1274.36 141.387 1274.37 141.96C1274.43 143.864 1274.87 145.737 1275.66 147.47C1276.45 149.203 1277.57 150.762 1278.97 152.056C1280.35 153.362 1281.98 154.38 1283.76 155.05C1285.53 155.72 1287.43 156.03 1289.33 155.96M1332.45 116.547C1332.44 118.589 1332.9 120.606 1333.78 122.449C1334.89 124.783 1336.64 126.756 1338.82 128.143C1341.01 129.531 1343.54 130.276 1346.12 130.294C1346.5 130.294 1346.88 130.219 1347.22 130.074C1347.57 129.929 1347.89 129.716 1348.16 129.448C1348.43 129.18 1348.64 128.862 1348.78 128.513C1348.93 128.163 1349 127.788 1349 127.409C1348.98 126.65 1348.67 125.927 1348.14 125.388C1347.6 124.85 1346.88 124.538 1346.12 124.516C1341.92 124.504 1338.21 120.822 1338.22 116.567C1338.22 115.525 1338.42 114.492 1338.82 113.529C1339.22 112.567 1339.81 111.693 1340.55 110.959C1342.05 109.466 1344.04 108.641 1346.15 108.646C1346.64 108.648 1347.12 108.526 1347.55 108.291C1347.97 108.056 1348.33 107.716 1348.59 107.303C1348.85 106.89 1349.01 106.417 1349.03 105.93C1349.06 105.442 1348.96 104.956 1348.75 104.516C1348.51 104.025 1348.15 103.609 1347.69 103.316C1347.23 103.024 1346.69 102.866 1346.15 102.861C1344.35 102.855 1342.57 103.204 1340.91 103.89C1339.25 104.576 1337.74 105.585 1336.47 106.858C1335.19 108.128 1334.18 109.638 1333.49 111.301C1332.8 112.964 1332.45 114.747 1332.45 116.547M1314.8 132.861C1304.97 139.455 1302.32 152.881 1308.89 162.883C1315.46 172.877 1328.77 175.647 1338.58 169.067C1348.43 162.477 1351.06 149.048 1344.49 139.039C1337.93 129.06 1324.63 126.29 1314.8 132.861M1322.3 121.229C1328.2 117.275 1329.79 109.202 1325.84 103.179C1321.89 97.1828 1313.91 95.5253 1308 99.4666C1302.1 103.426 1300.51 111.506 1304.44 117.503C1308.4 123.511 1316.38 125.176 1322.3 121.229M1294.61 196.037C1302.65 190.639 1304.81 179.652 1299.43 171.474C1294.06 163.313 1283.18 161.044 1275.14 166.42C1267.12 171.816 1264.95 182.795 1270.33 190.976C1275.69 199.135 1286.57 201.404 1294.61 196.037ZM1355.79 171.478C1347.52 177.041 1345.29 188.359 1350.8 196.782C1356.34 205.175 1367.54 207.51 1375.81 201.98C1384.12 196.435 1386.33 185.131 1380.79 176.687C1375.26 168.287 1364.06 165.954 1355.79 171.478Z" fill="#496483" fill-opacity="0.17"/>
<path d="M109.114 995.6C96.6042 990.64 83.3742 988.95 70.5742 990.5C66.0442 991.06 62.1542 992.35 59.0342 994.04C58.5142 994.27 58.0142 994.53 57.5742 994.77C54.2442 996.53 51.3642 999.07 47.7742 1000.38C44.6542 1001.52 41.2542 1001.78 38.2642 1003.25C37.8942 1003.43 37.3642 1003.53 37.2342 1002.96C37.1142 1002.44 40.0942 998.28 40.3842 997.85C41.0642 996.87 41.7542 995.91 42.4742 994.95C45.4242 991.02 49.1342 987.19 53.5942 987.17C54.3342 987.16 56.1642 987.35 56.8942 987.34H58.9942L59.0242 987.33C68.1542 987.15 79.9942 981.71 90.5942 973.78C100.844 966.11 112.424 952.06 120.264 941.67C128.594 930.63 131.884 922.48 131.194 919.64C130.324 915.95 120.264 916.81 120.264 916.81C120.264 916.81 118.004 916.81 114.274 917.16C101.864 918.32 73.0642 923.33 55.9142 944.97C47.3842 955.72 43.5342 966.78 44.3642 974.9V974.94C44.5742 977.1 44.8342 978.54 44.8342 979.22C44.8142 983.83 42.0742 987.22 39.1442 990.73C37.9642 992.14 36.6542 993.82 34.5442 996.63C33.9942 997.37 33.2142 998.63 32.8242 998.55C32.2342 998.43 31.8342 996.94 32.2642 994.11C32.4142 993.12 32.6142 991.65 33.6742 989.94C35.2842 987.34 36.5742 985.35 37.0542 984.33C37.1242 984.2 37.1342 984.12 37.1742 984C38.9242 980.59 40.1242 976.25 40.3342 971.17C40.8442 958.3 38.0242 945.26 31.9642 933.19C28.5642 926.41 20.7842 913.99 15.0542 914C11.1142 914 5.40419 928.86 4.44419 943.7C4.07419 949.5 3.66419 956.02 4.44419 962.92C6.28419 979.37 11.3342 990.31 20.9042 992.14C20.9342 992.14 20.9342 992.17 20.9342 992.17C23.9042 992.72 25.5142 994.86 26.3142 997.44C26.9942 999.61 27.1142 1001.9 26.8742 1004.15C26.3742 1008.86 24.4242 1013.34 22.2542 1017.5C21.6342 1018.68 20.9842 1019.85 20.3342 1021.01C19.4342 1022.59 18.0742 1023.89 17.3842 1025.6C16.6542 1027.43 17.7142 1028.92 19.2642 1029.86C20.0042 1030.31 20.8142 1030.64 21.6142 1030.94C23.4742 1031.64 26.2842 1032.22 27.9542 1030.79C29.5942 1029.39 29.4442 1026.99 29.8442 1025.06C30.3042 1022.88 31.1442 1020.8 32.0242 1018.76C33.5142 1015.3 35.5842 1012.03 38.5342 1009.65C40.4242 1008.13 42.8642 1007.23 45.3042 1007.33C48.0442 1007.45 49.5442 1009.42 50.7842 1011.63C51.1742 1012.35 51.5742 1013.01 52.0042 1013.64C55.7142 1021.24 66.4242 1024.65 81.5042 1025.08C88.4442 1025.27 94.9242 1024.35 100.704 1023.5C115.434 1021.34 128.524 1016.54 129.304 1012.74C130.444 1007.21 116.144 998.39 109.114 995.6V995.6Z" fill="#496483" fill-opacity="0.17"/>
<path d="M50.5042 966.24C51.5042 959.13 56.6442 949.5 69.7842 938.34C71.6642 936.74 73.7142 935.31 75.7742 933.96C77.1642 933.06 78.5742 932.2 80.0142 931.41C80.7542 931 81.5742 930.36 82.4442 930.09C84.9842 929.3 82.2542 932.51 81.7842 933.07C75.4442 940.77 68.4742 947.92 63.1242 956.4C61.6142 958.79 60.2442 961.27 59.1142 963.85C57.6742 967.1 56.5842 970.48 55.3642 973.82C54.9542 974.92 54.5842 976.77 53.6442 977.57C51.3242 979.51 50.3142 974.21 50.2242 972.98C50.0542 970.79 50.1942 968.41 50.5042 966.24V966.24ZM13.1542 924.27C12.4242 925.99 12.0742 928 11.6342 929.6C10.1042 935.21 9.23423 941 8.95423 946.81C8.76423 950.63 8.78423 954.47 9.06423 958.28C9.12423 959.14 9.74423 967.65 10.9342 967.17C11.8542 966.8 11.3242 963.95 11.3242 963.15C11.2442 953.13 13.2642 943.18 15.7442 933.48C16.4242 930.82 16.9942 928.15 16.8942 925.39C16.8542 924.43 16.8142 922.79 16.1542 922.03C14.9042 920.6 13.6142 923.19 13.1542 924.27V924.27ZM58.1842 1003.73C57.4542 1001.92 63.1342 998.47 64.2742 997.82C67.6442 995.91 71.4542 994.98 75.2942 994.5C81.5742 993.72 86.0442 994.69 86.9642 994.82C92.1142 995.56 90.6242 996.47 87.4942 997.03C86.0242 997.29 72.8842 999.22 61.4442 1003.3C60.9142 1003.49 58.4542 1004.4 58.1842 1003.73Z" fill="#9DB1C8" fill-opacity="0.17"/>
<path d="M1143.6 953.169C1138.64 965.679 1136.95 978.909 1138.5 991.709C1139.06 996.239 1140.35 1000.13 1142.04 1003.25C1142.27 1003.77 1142.53 1004.27 1142.77 1004.71C1144.53 1008.04 1147.07 1010.92 1148.38 1014.51C1149.52 1017.63 1149.78 1021.03 1151.25 1024.02C1151.43 1024.39 1151.53 1024.92 1150.96 1025.05C1150.44 1025.17 1146.28 1022.19 1145.85 1021.9C1144.87 1021.22 1143.91 1020.53 1142.95 1019.81C1139.02 1016.86 1135.19 1013.15 1135.17 1008.69C1135.16 1007.95 1135.35 1006.12 1135.34 1005.39L1135.34 1003.29L1135.33 1003.26C1135.15 994.129 1129.71 982.289 1121.78 971.689C1114.11 961.439 1100.06 949.859 1089.67 942.019C1078.63 933.689 1070.48 930.399 1067.64 931.089C1063.95 931.959 1064.81 942.019 1064.81 942.019C1064.81 942.019 1064.81 944.279 1065.16 948.009C1066.32 960.419 1071.33 989.219 1092.97 1006.37C1103.72 1014.9 1114.78 1018.75 1122.9 1017.92L1122.94 1017.92C1125.1 1017.71 1126.54 1017.45 1127.22 1017.45C1131.83 1017.47 1135.22 1020.21 1138.73 1023.14C1140.14 1024.32 1141.82 1025.63 1144.63 1027.74C1145.37 1028.29 1146.63 1029.07 1146.55 1029.46C1146.43 1030.05 1144.94 1030.45 1142.11 1030.02C1141.12 1029.87 1139.65 1029.67 1137.94 1028.61C1135.34 1027 1133.35 1025.71 1132.33 1025.23C1132.2 1025.16 1132.12 1025.15 1132 1025.11C1128.59 1023.36 1124.25 1022.16 1119.17 1021.95C1106.3 1021.44 1093.26 1024.26 1081.19 1030.32C1074.41 1033.72 1061.99 1041.5 1062 1047.23C1062 1051.17 1076.86 1056.88 1091.7 1057.84C1097.5 1058.21 1104.02 1058.62 1110.92 1057.84C1127.37 1056 1138.31 1050.95 1140.14 1041.38C1140.14 1041.35 1140.17 1041.35 1140.17 1041.35C1140.72 1038.38 1142.86 1036.77 1145.44 1035.97C1147.61 1035.29 1149.9 1035.17 1152.15 1035.41C1156.86 1035.91 1161.34 1037.86 1165.5 1040.03C1166.68 1040.65 1167.85 1041.3 1169.01 1041.95C1170.59 1042.85 1171.89 1044.21 1173.6 1044.9C1175.43 1045.63 1176.92 1044.57 1177.86 1043.02C1178.31 1042.28 1178.64 1041.47 1178.94 1040.67C1179.64 1038.81 1180.22 1036 1178.79 1034.33C1177.39 1032.69 1174.99 1032.84 1173.06 1032.44C1170.88 1031.98 1168.8 1031.14 1166.76 1030.26C1163.3 1028.77 1160.03 1026.7 1157.65 1023.75C1156.13 1021.86 1155.23 1019.42 1155.33 1016.98C1155.45 1014.24 1157.42 1012.74 1159.63 1011.5C1160.35 1011.11 1161.01 1010.71 1161.64 1010.28C1169.24 1006.57 1172.65 995.859 1173.08 980.779C1173.27 973.839 1172.35 967.359 1171.5 961.579C1169.34 946.849 1164.54 933.759 1160.74 932.979C1155.21 931.839 1146.39 946.139 1143.6 953.169V953.169Z" fill="#496483" fill-opacity="0.17"/>
<path d="M1114.24 1011.78C1107.13 1010.78 1097.5 1005.64 1086.34 992.499C1084.74 990.619 1083.31 988.569 1081.96 986.509C1081.06 985.119 1080.2 983.709 1079.41 982.269C1079 981.529 1078.36 980.709 1078.09 979.839C1077.3 977.299 1080.51 980.029 1081.07 980.499C1088.77 986.839 1095.92 993.809 1104.4 999.159C1106.79 1000.67 1109.27 1002.04 1111.85 1003.17C1115.1 1004.61 1118.48 1005.7 1121.82 1006.92C1122.92 1007.33 1124.77 1007.7 1125.57 1008.64C1127.51 1010.96 1122.21 1011.97 1120.98 1012.06C1118.79 1012.23 1116.41 1012.09 1114.24 1011.78V1011.78ZM1072.27 1049.13C1073.99 1049.86 1076 1050.21 1077.6 1050.65C1083.21 1052.18 1089 1053.05 1094.81 1053.33C1098.63 1053.52 1102.47 1053.5 1106.28 1053.22C1107.14 1053.16 1115.65 1052.54 1115.17 1051.35C1114.8 1050.43 1111.95 1050.96 1111.15 1050.96C1101.13 1051.04 1091.18 1049.02 1081.48 1046.54C1078.82 1045.86 1076.15 1045.29 1073.39 1045.39C1072.43 1045.43 1070.79 1045.47 1070.03 1046.13C1068.6 1047.38 1071.19 1048.67 1072.27 1049.13V1049.13ZM1151.73 1004.1C1149.92 1004.83 1146.47 999.149 1145.82 998.009C1143.91 994.639 1142.98 990.829 1142.5 986.989C1141.72 980.709 1142.69 976.239 1142.82 975.319C1143.56 970.169 1144.47 971.659 1145.03 974.789C1145.29 976.259 1147.22 989.399 1151.3 1000.84C1151.49 1001.37 1152.4 1003.83 1151.73 1004.1Z" fill="#9DB1C8" fill-opacity="0.17"/>
</g>
<defs>
<clipPath id="clip0_50_1175">
<rect width="1440" height="1024" fill="white"/>
</clipPath>
</defs>
</svg>
