<svg width="35" height="50" viewBox="0 0 35 50" fill="none" xmlns="http://www.w3.org/2000/svg">
<path d="M5.01725 23.745H5.03491L4.7888 23.3603C3.29427 21.024 2.4165 18.255 2.4165 15.2778C2.4165 13.3043 2.80521 11.3501 3.56042 9.52688C4.31564 7.70363 5.42257 6.04698 6.81803 4.65153C8.21349 3.25607 9.87013 2.14913 11.6934 1.39392C13.5166 0.638704 15.4708 0.25 17.4443 0.25C19.4177 0.25 21.3719 0.638704 23.1951 1.39392C25.0184 2.14913 26.675 3.25607 28.0705 4.65153C29.4659 6.04698 30.5729 7.70363 31.3281 9.52688C32.0833 11.3501 32.472 13.3043 32.472 15.2778C32.4721 18.1432 31.6496 20.9484 30.1021 23.36L29.855 23.745H29.8713L17.4443 43.1865L5.01725 23.745ZM12.6376 20.0844C13.9124 21.3592 15.6414 22.0754 17.4443 22.0754C19.2471 22.0754 20.9761 21.3592 22.2509 20.0844C23.5257 18.8096 24.2419 17.0806 24.2419 15.2778C24.2419 13.4749 23.5257 11.7459 22.2509 10.4711C20.9761 9.19632 19.2471 8.48014 17.4443 8.48014C15.6414 8.48014 13.9124 9.19632 12.6376 10.4711C11.3628 11.7459 10.6466 13.4749 10.6466 15.2778C10.6466 17.0806 11.3628 18.8096 12.6376 20.0844Z" fill="#1B497E" stroke="black" stroke-width="0.5"/>
<path d="M10.9233 37.7566C8.74026 38.0826 6.88972 38.5668 5.55835 39.1622C4.8563 39.4761 4.28553 39.8267 3.88664 40.2119C3.48723 40.5975 3.24195 41.0367 3.24206 41.5193L10.9233 37.7566ZM10.9233 37.7566C10.8382 37.6101 10.7533 37.464 10.6683 37.3177C10.5613 37.1338 10.4543 36.9497 10.3468 36.7644C7.35157 37.2008 4.82605 37.9251 3.04728 38.9002C1.23002 39.8963 0.25 41.1183 0.25 42.5167C0.25 44.4246 1.92194 46.2338 4.98526 47.5792C8.02817 48.9156 12.3567 49.7498 17.4603 49.7498C22.5638 49.7498 26.8924 48.9156 29.9353 47.5792C32.9986 46.2338 34.6706 44.4246 34.6706 42.5167C34.6706 41.1182 33.6907 39.8963 31.8736 38.9002C30.0947 37.925 27.5689 37.2005 24.5732 36.7642L23.9925 37.753C26.1682 38.0778 28.0191 38.5615 29.353 39.1572C30.0568 39.4715 30.6297 39.8226 31.0304 40.2085C31.4316 40.5948 31.6785 41.0351 31.6785 41.5193C31.6785 42.1973 31.1997 42.7876 30.4708 43.28C29.7331 43.7783 28.6822 44.2172 27.406 44.5818C24.8502 45.312 21.3339 45.7603 17.4603 45.7603C13.5867 45.7603 10.0704 45.312 7.5146 44.5818C6.2384 44.2172 5.18745 43.7783 4.44981 43.28C3.72092 42.7876 3.24209 42.1973 3.24206 41.5194L10.9233 37.7566Z" fill="#1B497E" stroke="black" stroke-width="0.5"/>
</svg>
