<svg width="32" height="50" viewBox="0 0 32 50" fill="none" xmlns="http://www.w3.org/2000/svg">
<path d="M20.5714 45.7045H20.8214V45.4545V43.1818V42.9318H20.5714H11.4286H11.1786V43.1818V45.4545V45.7045H11.4286H20.5714ZM28 38.8864H28.25V38.6364V6.81818V6.56818H28H4H3.75V6.81818V38.6364V38.8864H4H28ZM6.85714 0.25H25.1429C28.8004 0.25 31.75 3.18487 31.75 6.81818V43.1818C31.75 46.8151 28.8004 49.75 25.1429 49.75H6.85714C3.19958 49.75 0.25 46.8151 0.25 43.1818V6.81818C0.25 3.18487 3.19958 0.25 6.85714 0.25Z" fill="#1B497E" stroke="black" stroke-width="0.5"/>
</svg>
