<svg width="64" height="113" viewBox="0 0 64 113" fill="none" xmlns="http://www.w3.org/2000/svg">
<path d="M4.9774 24.7861V21.8256C3.7891 21.5502 2.76358 21.0223 1.90083 20.242C1.03718 19.4617 0.403573 18.3601 0 16.9372L2.4887 15.9044C2.82501 17.006 3.3241 17.8437 3.98596 18.4175C4.64692 18.9912 5.5155 19.2781 6.5917 19.2781C7.51095 19.2781 8.29029 19.066 8.92973 18.6419C9.56828 18.2169 9.88755 17.5568 9.88755 16.6618C9.88755 15.8585 9.64092 15.2214 9.14766 14.7505C8.65441 14.2805 7.51095 13.7471 5.71729 13.1504C3.78911 12.5308 2.46628 11.7909 1.74882 10.9307C1.03135 10.0696 0.672622 9.0194 0.672622 7.78009C0.672622 6.28833 1.14346 5.12935 2.08513 4.30315C3.0268 3.47694 3.99089 3.00647 4.9774 2.89171V0H7.66789V2.89171C8.78893 3.07532 9.71401 3.49393 10.4431 4.14755C11.1714 4.80208 11.7036 5.59983 12.0399 6.54078L9.55124 7.64239C9.28219 6.90799 8.90103 6.35718 8.40778 5.98998C7.91452 5.62278 7.2419 5.43918 6.38991 5.43918C5.4034 5.43918 4.6523 5.66317 4.13663 6.11116C3.62095 6.55823 3.36311 7.11454 3.36311 7.78009C3.36311 8.53744 3.69942 9.13415 4.37204 9.5702C5.04467 10.0063 6.21055 10.4653 7.86968 10.9472C9.41671 11.4062 10.5884 12.1346 11.3848 13.1325C12.1803 14.1313 12.578 15.2848 12.578 16.5929C12.578 18.2224 12.1072 19.4617 11.1655 20.3109C10.2239 21.16 9.05798 21.6879 7.66789 21.8944V24.7861H4.9774Z" fill="white"/>
<line x1="26.6358" y1="11.0982" x2="62.5202" y2="11.0982" stroke="white" stroke-width="2.95954" stroke-linecap="round"/>
<path d="M4.9774 54.0116V51.051C3.7891 50.7756 2.76358 50.2478 1.90083 49.4675C1.03718 48.6872 0.403573 47.5856 0 46.1627L2.4887 45.1299C2.82501 46.2315 3.3241 47.0692 3.98596 47.6429C4.64692 48.2167 5.5155 48.5036 6.5917 48.5036C7.51095 48.5036 8.29029 48.2915 8.92973 47.8674C9.56828 47.4423 9.88755 46.7823 9.88755 45.8872C9.88755 45.084 9.64092 44.4469 9.14766 43.976C8.65441 43.5059 7.51095 42.9726 5.71729 42.3759C3.78911 41.7562 2.46628 41.0163 1.74882 40.1561C1.03135 39.2951 0.672622 38.2449 0.672622 37.0056C0.672622 35.5138 1.14346 34.3548 2.08513 33.5286C3.0268 32.7024 3.99089 32.2319 4.9774 32.1172V29.2255H7.66789V32.1172C8.78893 32.3008 9.71401 32.7194 10.4431 33.373C11.1714 34.0275 11.7036 34.8253 12.0399 35.7662L9.55124 36.8679C9.28219 36.1334 8.90103 35.5826 8.40778 35.2154C7.91452 34.8482 7.2419 34.6646 6.38991 34.6646C5.4034 34.6646 4.6523 34.8886 4.13663 35.3366C3.62095 35.7837 3.36311 36.34 3.36311 37.0056C3.36311 37.7629 3.69942 38.3596 4.37204 38.7957C5.04467 39.2317 6.21055 39.6907 7.86968 40.1727C9.41671 40.6317 10.5884 41.3601 11.3848 42.358C12.1803 43.3568 12.578 44.5102 12.578 45.8184C12.578 47.4479 12.1072 48.6872 11.1655 49.5363C10.2239 50.3855 9.05798 50.9133 7.66789 51.1199V54.0116H4.9774Z" fill="white"/>
<line x1="26.6358" y1="40.3237" x2="62.5202" y2="40.3237" stroke="white" stroke-width="2.95954" stroke-linecap="round"/>
<path d="M4.9774 83.2369V80.2764C3.7891 80.001 2.76358 79.4731 1.90083 78.6928C1.03718 77.9125 0.403573 76.8109 0 75.388L2.4887 74.3552C2.82501 75.4568 3.3241 76.2945 3.98596 76.8683C4.64692 77.442 5.5155 77.7289 6.5917 77.7289C7.51095 77.7289 8.29029 77.5168 8.92973 77.0927C9.56828 76.6677 9.88755 76.0076 9.88755 75.1126C9.88755 74.3093 9.64092 73.6722 9.14766 73.2013C8.65441 72.7313 7.51095 72.1979 5.71729 71.6012C3.78911 70.9816 2.46628 70.2417 1.74882 69.3815C1.03135 68.5204 0.672622 67.4702 0.672622 66.2309C0.672622 64.7391 1.14346 63.5802 2.08513 62.754C3.0268 61.9277 3.99089 61.4573 4.9774 61.3425V58.4508H7.66789V61.3425C8.78893 61.5261 9.71401 61.9447 10.4431 62.5984C11.1714 63.2529 11.7036 64.0506 12.0399 64.9916L9.55124 66.0932C9.28219 65.3588 8.90103 64.808 8.40778 64.4408C7.91452 64.0736 7.2419 63.89 6.38991 63.89C5.4034 63.89 4.6523 64.114 4.13663 64.562C3.62095 65.009 3.36311 65.5653 3.36311 66.2309C3.36311 66.9882 3.69942 67.585 4.37204 68.021C5.04467 68.4571 6.21055 68.9161 7.86968 69.398C9.41671 69.857 10.5884 70.5855 11.3848 71.5833C12.1803 72.5821 12.578 73.7356 12.578 75.0437C12.578 76.6732 12.1072 77.9125 11.1655 78.7617C10.2239 79.6108 9.05798 80.1387 7.66789 80.3452V83.2369H4.9774Z" fill="white"/>
<line x1="26.6358" y1="69.5492" x2="62.5202" y2="69.5492" stroke="white" stroke-width="2.95954" stroke-linecap="round"/>
<path d="M4.9774 112.462V109.502C3.7891 109.226 2.76358 108.699 1.90083 107.918C1.03718 107.138 0.403573 106.036 0 104.613L2.4887 103.581C2.82501 104.682 3.3241 105.52 3.98596 106.094C4.64692 106.667 5.5155 106.954 6.5917 106.954C7.51095 106.954 8.29029 106.742 8.92973 106.318C9.56828 105.893 9.88755 105.233 9.88755 104.338C9.88755 103.535 9.64092 102.898 9.14766 102.427C8.65441 101.957 7.51095 101.423 5.71729 100.827C3.78911 100.207 2.46628 99.4671 1.74882 98.607C1.03135 97.7459 0.672622 96.6957 0.672622 95.4564C0.672622 93.9646 1.14346 92.8056 2.08513 91.9794C3.0268 91.1532 3.99089 90.6827 4.9774 90.568V87.6763H7.66789V90.568C8.78893 90.7516 9.71401 91.1702 10.4431 91.8238C11.1714 92.4784 11.7036 93.2761 12.0399 94.2171L9.55124 95.3187C9.28219 94.5843 8.90103 94.0335 8.40778 93.6662C7.91452 93.299 7.2419 93.1154 6.38991 93.1154C5.4034 93.1154 4.6523 93.3394 4.13663 93.7874C3.62095 94.2345 3.36311 94.7908 3.36311 95.4564C3.36311 96.2137 3.69942 96.8104 4.37204 97.2465C5.04467 97.6825 6.21055 98.1415 7.86968 98.6235C9.41671 99.0825 10.5884 99.8109 11.3848 100.809C12.1803 101.808 12.578 102.961 12.578 104.269C12.578 105.899 12.1072 107.138 11.1655 107.987C10.2239 108.836 9.05798 109.364 7.66789 109.571V112.462H4.9774Z" fill="white"/>
<line x1="26.6358" y1="98.7745" x2="62.5202" y2="98.7745" stroke="white" stroke-width="2.95954" stroke-linecap="round"/>
</svg>
