<svg width="121" height="126" viewBox="0 0 121 126" fill="none" xmlns="http://www.w3.org/2000/svg">
<path d="M90.2985 25.2V12.6H42.1393V25.2M36.1194 100.8C29.4975 100.8 24.0796 106.47 24.0796 113.4C24.0796 120.33 29.4975 126 36.1194 126C42.7413 126 48.1592 120.33 48.1592 113.4C48.1592 106.47 42.7413 100.8 36.1194 100.8ZM96.3184 100.8C89.6965 100.8 84.2786 106.47 84.2786 113.4C84.2786 120.33 89.6965 126 96.3184 126C102.94 126 108.358 120.33 108.358 113.4C108.358 106.47 102.94 100.8 96.3184 100.8ZM37.3234 80.64V80.01L42.7413 69.3H87.2886C91.5025 69.3 95.7164 66.78 97.5224 63L121 18.9L110.766 12.6L87.2886 56.7H45.1493L19.8657 0H0V12.6H12.0398L33.7114 60.48L25.2836 75.6C24.6816 77.49 24.0796 79.38 24.0796 81.9C24.0796 88.83 29.4975 94.5 36.1194 94.5H108.358V81.9H38.5274C37.9254 81.9 37.3234 81.27 37.3234 80.64V80.64Z" fill="white"/>
</svg>
